<?xml version="1.0" encoding="UTF-8" standalone="no"?>
<!DOCTYPE svg PUBLIC "-//W3C//DTD SVG 1.1//EN"
 "http://www.w3.org/Graphics/SVG/1.1/DTD/svg11.dtd">
<!-- Generated by graphviz version 2.43.0 (0)
 -->
<!-- Title: MONA_DFA Pages: 1 -->
<svg width="360pt" height="756pt"
 viewBox="0.00 0.00 360.11 756.00" xmlns="http://www.w3.org/2000/svg" xmlns:xlink="http://www.w3.org/1999/xlink">
<g id="graph0" class="graph" transform="scale(1.65 1.65) rotate(0) translate(4 1243.02)">
<title>MONA_DFA</title>
<polygon fill="white" stroke="transparent" points="-4,4 -4,-1243.02 590,-1243.02 590,4 -4,4"/>
<!-- 9 -->
<g id="node1" class="node">
<title>9</title>
<ellipse fill="none" stroke="black" cx="556" cy="-679.02" rx="18" ry="18"/>
<ellipse fill="none" stroke="black" cx="556" cy="-679.02" rx="22" ry="22"/>
<text text-anchor="middle" x="556" y="-675.32" font-family="Times,serif" font-size="14.00">9</text>
</g>
<!-- 9&#45;&gt;9 -->
<g id="edge45" class="edge">
<title>9&#45;&gt;9</title>
<path fill="none" stroke="black" d="M546.59,-699.19C545.15,-709.61 548.28,-719.02 556,-719.02 561.07,-719.02 564.16,-714.97 565.28,-709.24"/>
<polygon fill="black" stroke="black" points="568.78,-709.23 565.41,-699.19 561.78,-709.14 568.78,-709.23"/>
<text text-anchor="middle" x="556" y="-767.82" font-family="Courier,monospace" font-size="14.00">X</text>
<text text-anchor="middle" x="556" y="-752.82" font-family="Courier,monospace" font-size="14.00">X</text>
<text text-anchor="middle" x="556" y="-737.82" font-family="Courier,monospace" font-size="14.00">X</text>
<text text-anchor="middle" x="556" y="-722.82" font-family="Courier,monospace" font-size="14.00">X</text>
</g>
<!-- 0 -->
<g id="node2" class="node">
<title>0</title>
<ellipse fill="none" stroke="black" cx="103" cy="-630.02" rx="18" ry="18"/>
<text text-anchor="middle" x="103" y="-626.32" font-family="Times,serif" font-size="14.00">0</text>
</g>
<!-- 0&#45;&gt;9 -->
<g id="edge11" class="edge">
<title>0&#45;&gt;9</title>
<path fill="none" stroke="black" d="M105.42,-647.97C113.12,-742.59 151.66,-1179.02 207,-1179.02 207,-1179.02 207,-1179.02 452,-1179.02 547.85,-1179.02 555.26,-822.08 555.25,-711.36"/>
<polygon fill="black" stroke="black" points="558.75,-711.14 555.23,-701.14 551.75,-711.15 558.75,-711.14"/>
<text text-anchor="middle" x="346" y="-1227.82" font-family="Courier,monospace" font-size="14.00">1</text>
<text text-anchor="middle" x="346" y="-1212.82" font-family="Courier,monospace" font-size="14.00">1</text>
<text text-anchor="middle" x="346" y="-1197.82" font-family="Courier,monospace" font-size="14.00">1</text>
<text text-anchor="middle" x="346" y="-1182.82" font-family="Courier,monospace" font-size="14.00">1</text>
</g>
<!-- 0&#45;&gt;0 -->
<g id="edge2" class="edge">
<title>0&#45;&gt;0</title>
<path fill="none" stroke="black" d="M94.64,-646.31C92.62,-656.4 95.41,-666.02 103,-666.02 107.86,-666.02 110.76,-662.07 111.68,-656.58"/>
<polygon fill="black" stroke="black" points="115.17,-656.19 111.36,-646.31 108.17,-656.41 115.17,-656.19"/>
<text text-anchor="middle" x="103" y="-714.82" font-family="Courier,monospace" font-size="14.00">0</text>
<text text-anchor="middle" x="103" y="-699.82" font-family="Courier,monospace" font-size="14.00">0</text>
<text text-anchor="middle" x="103" y="-684.82" font-family="Courier,monospace" font-size="14.00">0</text>
<text text-anchor="middle" x="103" y="-669.82" font-family="Courier,monospace" font-size="14.00">0</text>
</g>
<!-- 1 -->
<g id="node3" class="node">
<title>1</title>
<ellipse fill="none" stroke="black" cx="208" cy="-630.02" rx="18" ry="18"/>
<text text-anchor="middle" x="208" y="-626.32" font-family="Times,serif" font-size="14.00">1</text>
</g>
<!-- 0&#45;&gt;1 -->
<g id="edge3" class="edge">
<title>0&#45;&gt;1</title>
<path fill="none" stroke="black" d="M121.01,-630.02C136.96,-630.02 161.09,-630.02 179.73,-630.02"/>
<polygon fill="black" stroke="black" points="179.97,-633.52 189.97,-630.02 179.97,-626.52 179.97,-633.52"/>
<text text-anchor="middle" x="155.5" y="-678.82" font-family="Courier,monospace" font-size="14.00">0</text>
<text text-anchor="middle" x="155.5" y="-663.82" font-family="Courier,monospace" font-size="14.00">0</text>
<text text-anchor="middle" x="155.5" y="-648.82" font-family="Courier,monospace" font-size="14.00">0</text>
<text text-anchor="middle" x="155.5" y="-633.82" font-family="Courier,monospace" font-size="14.00">1</text>
</g>
<!-- 2 -->
<g id="node4" class="node">
<title>2</title>
<ellipse fill="none" stroke="black" cx="208" cy="-763.02" rx="18" ry="18"/>
<text text-anchor="middle" x="208" y="-759.32" font-family="Times,serif" font-size="14.00">2</text>
</g>
<!-- 0&#45;&gt;2 -->
<g id="edge4" class="edge">
<title>0&#45;&gt;2</title>
<path fill="none" stroke="black" d="M113.23,-644.92C126.48,-665.88 152.17,-704.87 178,-735.02 180.69,-738.15 183.68,-741.34 186.69,-744.37"/>
<polygon fill="black" stroke="black" points="184.44,-747.07 194.06,-751.52 189.32,-742.04 184.44,-747.07"/>
<text text-anchor="middle" x="155.5" y="-758.82" font-family="Courier,monospace" font-size="14.00">0</text>
<text text-anchor="middle" x="155.5" y="-743.82" font-family="Courier,monospace" font-size="14.00">0</text>
<text text-anchor="middle" x="155.5" y="-728.82" font-family="Courier,monospace" font-size="14.00">1</text>
<text text-anchor="middle" x="155.5" y="-713.82" font-family="Courier,monospace" font-size="14.00">0</text>
</g>
<!-- 3 -->
<g id="node5" class="node">
<title>3</title>
<ellipse fill="none" stroke="black" cx="346" cy="-763.02" rx="18" ry="18"/>
<text text-anchor="middle" x="346" y="-759.32" font-family="Times,serif" font-size="14.00">3</text>
</g>
<!-- 0&#45;&gt;3 -->
<g id="edge5" class="edge">
<title>0&#45;&gt;3</title>
<path fill="none" stroke="black" d="M103.14,-648.33C102.09,-694.44 106.57,-815.42 178,-868.02 223.39,-901.43 257.48,-866.19 298,-827.02 310.36,-815.07 321.84,-799.57 330.35,-786.82"/>
<polygon fill="black" stroke="black" points="333.5,-788.4 336,-778.11 327.62,-784.59 333.5,-788.4"/>
<text text-anchor="middle" x="208" y="-929.82" font-family="Courier,monospace" font-size="14.00">0</text>
<text text-anchor="middle" x="208" y="-914.82" font-family="Courier,monospace" font-size="14.00">0</text>
<text text-anchor="middle" x="208" y="-899.82" font-family="Courier,monospace" font-size="14.00">1</text>
<text text-anchor="middle" x="208" y="-884.82" font-family="Courier,monospace" font-size="14.00">1</text>
</g>
<!-- 4 -->
<g id="node6" class="node">
<title>4</title>
<ellipse fill="none" stroke="black" cx="208" cy="-229.02" rx="18" ry="18"/>
<text text-anchor="middle" x="208" y="-225.32" font-family="Times,serif" font-size="14.00">4</text>
</g>
<!-- 0&#45;&gt;4 -->
<g id="edge6" class="edge">
<title>0&#45;&gt;4</title>
<path fill="none" stroke="black" d="M108.29,-612.73C116.48,-579.72 134.99,-505.43 151,-443.02 168.29,-375.6 189.17,-296.39 199.88,-255.87"/>
<polygon fill="black" stroke="black" points="203.27,-256.76 202.44,-246.2 196.5,-254.97 203.27,-256.76"/>
<text text-anchor="middle" x="155.5" y="-491.82" font-family="Courier,monospace" font-size="14.00">0</text>
<text text-anchor="middle" x="155.5" y="-476.82" font-family="Courier,monospace" font-size="14.00">1</text>
<text text-anchor="middle" x="155.5" y="-461.82" font-family="Courier,monospace" font-size="14.00">0</text>
<text text-anchor="middle" x="155.5" y="-446.82" font-family="Courier,monospace" font-size="14.00">0</text>
</g>
<!-- 5 -->
<g id="node7" class="node">
<title>5</title>
<ellipse fill="none" stroke="black" cx="346" cy="-115.02" rx="18" ry="18"/>
<text text-anchor="middle" x="346" y="-111.32" font-family="Times,serif" font-size="14.00">5</text>
</g>
<!-- 0&#45;&gt;5 -->
<g id="edge7" class="edge">
<title>0&#45;&gt;5</title>
<path fill="none" stroke="black" d="M104.02,-611.98C104.47,-531.97 110.54,-210.13 178,-142.02 214.77,-104.88 281.11,-106.32 318.14,-110.66"/>
<polygon fill="black" stroke="black" points="317.82,-114.15 328.2,-111.99 318.74,-107.21 317.82,-114.15"/>
<text text-anchor="middle" x="208" y="-190.82" font-family="Courier,monospace" font-size="14.00">0</text>
<text text-anchor="middle" x="208" y="-175.82" font-family="Courier,monospace" font-size="14.00">1</text>
<text text-anchor="middle" x="208" y="-160.82" font-family="Courier,monospace" font-size="14.00">0</text>
<text text-anchor="middle" x="208" y="-145.82" font-family="Courier,monospace" font-size="14.00">1</text>
</g>
<!-- 6 -->
<g id="node8" class="node">
<title>6</title>
<ellipse fill="none" stroke="black" cx="346" cy="-343.02" rx="18" ry="18"/>
<text text-anchor="middle" x="346" y="-339.32" font-family="Times,serif" font-size="14.00">6</text>
</g>
<!-- 0&#45;&gt;6 -->
<g id="edge8" class="edge">
<title>0&#45;&gt;6</title>
<path fill="none" stroke="black" d="M113.95,-615.4C127.06,-596.92 151.56,-564.87 178,-543.02 225.25,-503.96 258.57,-521.95 298,-475.02 323.39,-444.79 335.48,-399.85 340.92,-370.99"/>
<polygon fill="black" stroke="black" points="344.43,-371.23 342.7,-360.78 337.54,-370.03 344.43,-371.23"/>
<text text-anchor="middle" x="208" y="-591.82" font-family="Courier,monospace" font-size="14.00">0</text>
<text text-anchor="middle" x="208" y="-576.82" font-family="Courier,monospace" font-size="14.00">1</text>
<text text-anchor="middle" x="208" y="-561.82" font-family="Courier,monospace" font-size="14.00">1</text>
<text text-anchor="middle" x="208" y="-546.82" font-family="Courier,monospace" font-size="14.00">0</text>
</g>
<!-- 7 -->
<g id="node9" class="node">
<title>7</title>
<ellipse fill="none" stroke="black" cx="451" cy="-265.02" rx="18" ry="18"/>
<text text-anchor="middle" x="451" y="-261.32" font-family="Times,serif" font-size="14.00">7</text>
</g>
<!-- 0&#45;&gt;7 -->
<g id="edge9" class="edge">
<title>0&#45;&gt;7</title>
<path fill="none" stroke="black" d="M103.69,-611.96C103.08,-549.22 104.72,-335.28 151,-167.02 169.97,-98.04 196.5,-84.73 256,-45.02 301.91,-14.37 328.48,15.06 376,-13.02 386.7,-19.34 399.31,-50.14 403,-62.02 426.89,-138.78 382.46,-171.46 421,-242.02 422.6,-244.95 424.75,-247.64 427.16,-250.06"/>
<polygon fill="black" stroke="black" points="424.95,-252.78 434.86,-256.52 429.44,-247.41 424.95,-252.78"/>
<text text-anchor="middle" x="277" y="-93.82" font-family="Courier,monospace" font-size="14.00">0</text>
<text text-anchor="middle" x="277" y="-78.82" font-family="Courier,monospace" font-size="14.00">1</text>
<text text-anchor="middle" x="277" y="-63.82" font-family="Courier,monospace" font-size="14.00">1</text>
<text text-anchor="middle" x="277" y="-48.82" font-family="Courier,monospace" font-size="14.00">1</text>
</g>
<!-- 8 -->
<g id="node10" class="node">
<title>8</title>
<ellipse fill="none" stroke="black" cx="451" cy="-667.02" rx="18" ry="18"/>
<text text-anchor="middle" x="451" y="-663.32" font-family="Times,serif" font-size="14.00">8</text>
</g>
<!-- 0&#45;&gt;8 -->
<g id="edge10" class="edge">
<title>0&#45;&gt;8</title>
<path fill="none" stroke="black" d="M105.27,-648.06C110.02,-709.57 129.03,-909.19 178,-945.02 204.14,-964.14 321.72,-986.48 376,-944.02 439.59,-894.27 399.86,-845.94 421,-768.02 427.83,-742.83 436.09,-714.25 442.04,-693.94"/>
<polygon fill="black" stroke="black" points="445.46,-694.71 444.92,-684.13 438.74,-692.74 445.46,-694.71"/>
<text text-anchor="middle" x="277" y="-1016.82" font-family="Courier,monospace" font-size="14.00">1 1 1</text>
<text text-anchor="middle" x="277" y="-1001.82" font-family="Courier,monospace" font-size="14.00">0 1 1</text>
<text text-anchor="middle" x="277" y="-986.82" font-family="Courier,monospace" font-size="14.00">X 0 1</text>
<text text-anchor="middle" x="277" y="-971.82" font-family="Courier,monospace" font-size="14.00">X,X,0</text>
</g>
<!-- 1&#45;&gt;9 -->
<g id="edge17" class="edge">
<title>1&#45;&gt;9</title>
<path fill="none" stroke="black" d="M212.51,-647.86C218.14,-672.74 231.15,-718.26 256,-749.02 270.1,-766.47 286.37,-757.83 298,-777.02 317.35,-808.93 288.23,-919.08 316,-944.02 385.73,-1006.63 475.91,-860.99 481,-854.02 514,-808.86 535.75,-746.75 546.67,-709.95"/>
<polygon fill="black" stroke="black" points="550.06,-710.86 549.47,-700.28 543.33,-708.92 550.06,-710.86"/>
<text text-anchor="middle" x="398.5" y="-994.82" font-family="Courier,monospace" font-size="14.00">1</text>
<text text-anchor="middle" x="398.5" y="-979.82" font-family="Courier,monospace" font-size="14.00">1</text>
<text text-anchor="middle" x="398.5" y="-964.82" font-family="Courier,monospace" font-size="14.00">1</text>
<text text-anchor="middle" x="398.5" y="-949.82" font-family="Courier,monospace" font-size="14.00">X</text>
</g>
<!-- 1&#45;&gt;1 -->
<g id="edge12" class="edge">
<title>1&#45;&gt;1</title>
<path fill="none" stroke="black" d="M199.02,-645.93C196.68,-656.17 199.67,-666.02 208,-666.02 213.47,-666.02 216.63,-661.77 217.5,-655.96"/>
<polygon fill="black" stroke="black" points="221,-655.74 216.98,-645.93 214.01,-656.1 221,-655.74"/>
<text text-anchor="middle" x="208" y="-714.82" font-family="Courier,monospace" font-size="14.00">0</text>
<text text-anchor="middle" x="208" y="-699.82" font-family="Courier,monospace" font-size="14.00">0</text>
<text text-anchor="middle" x="208" y="-684.82" font-family="Courier,monospace" font-size="14.00">0</text>
<text text-anchor="middle" x="208" y="-669.82" font-family="Courier,monospace" font-size="14.00">X</text>
</g>
<!-- 1&#45;&gt;3 -->
<g id="edge13" class="edge">
<title>1&#45;&gt;3</title>
<path fill="none" stroke="black" d="M224.86,-636.99C244.42,-646.31 277.58,-664.53 298,-689.02 311.01,-704.61 305.03,-713.92 316,-731.02 318.74,-735.29 322.06,-739.54 325.46,-743.48"/>
<polygon fill="black" stroke="black" points="323.05,-746.03 332.39,-751.04 328.22,-741.3 323.05,-746.03"/>
<text text-anchor="middle" x="277" y="-737.82" font-family="Courier,monospace" font-size="14.00">0</text>
<text text-anchor="middle" x="277" y="-722.82" font-family="Courier,monospace" font-size="14.00">0</text>
<text text-anchor="middle" x="277" y="-707.82" font-family="Courier,monospace" font-size="14.00">1</text>
<text text-anchor="middle" x="277" y="-692.82" font-family="Courier,monospace" font-size="14.00">X</text>
</g>
<!-- 1&#45;&gt;5 -->
<g id="edge14" class="edge">
<title>1&#45;&gt;5</title>
<path fill="none" stroke="black" d="M219.64,-615.8C226.08,-606.43 233.83,-593.59 238,-581.02 261.9,-508.89 230.18,-482.47 256,-411.02 267.44,-379.37 285.94,-379.43 298,-348.02 317.81,-296.44 304.94,-279.15 316,-225.02 321.87,-196.28 330.69,-163.88 337.06,-141.72"/>
<polygon fill="black" stroke="black" points="340.45,-142.6 339.88,-132.02 333.72,-140.65 340.45,-142.6"/>
<text text-anchor="middle" x="277" y="-459.82" font-family="Courier,monospace" font-size="14.00">0</text>
<text text-anchor="middle" x="277" y="-444.82" font-family="Courier,monospace" font-size="14.00">1</text>
<text text-anchor="middle" x="277" y="-429.82" font-family="Courier,monospace" font-size="14.00">0</text>
<text text-anchor="middle" x="277" y="-414.82" font-family="Courier,monospace" font-size="14.00">X</text>
</g>
<!-- 1&#45;&gt;7 -->
<g id="edge15" class="edge">
<title>1&#45;&gt;7</title>
<path fill="none" stroke="black" d="M223.79,-621.31C229.01,-617.54 234.46,-612.68 238,-607.02 257.76,-575.37 240.16,-558.8 256,-525.02 268.91,-497.49 286.94,-499.34 298,-471.02 315.44,-426.35 282.2,-290.02 316,-256.02 344.21,-227.64 394.81,-241.35 425.11,-253.47"/>
<polygon fill="black" stroke="black" points="423.97,-256.79 434.54,-257.46 426.69,-250.34 423.97,-256.79"/>
<text text-anchor="middle" x="346" y="-304.82" font-family="Courier,monospace" font-size="14.00">0</text>
<text text-anchor="middle" x="346" y="-289.82" font-family="Courier,monospace" font-size="14.00">1</text>
<text text-anchor="middle" x="346" y="-274.82" font-family="Courier,monospace" font-size="14.00">1</text>
<text text-anchor="middle" x="346" y="-259.82" font-family="Courier,monospace" font-size="14.00">X</text>
</g>
<!-- 1&#45;&gt;8 -->
<g id="edge16" class="edge">
<title>1&#45;&gt;8</title>
<path fill="none" stroke="black" d="M225.95,-632.62C267.17,-638.95 372.97,-655.19 423.01,-662.87"/>
<polygon fill="black" stroke="black" points="422.66,-666.36 433.07,-664.42 423.72,-659.44 422.66,-666.36"/>
<text text-anchor="middle" x="346" y="-703.82" font-family="Courier,monospace" font-size="14.00">1 1</text>
<text text-anchor="middle" x="346" y="-688.82" font-family="Courier,monospace" font-size="14.00">0 1</text>
<text text-anchor="middle" x="346" y="-673.82" font-family="Courier,monospace" font-size="14.00">X 0</text>
<text text-anchor="middle" x="346" y="-658.82" font-family="Courier,monospace" font-size="14.00">X,X</text>
</g>
<!-- 2&#45;&gt;9 -->
<g id="edge23" class="edge">
<title>2&#45;&gt;9</title>
<path fill="none" stroke="black" d="M214.84,-779.95C221.47,-799.84 232.12,-833.94 238,-864.02 245.21,-900.86 228.07,-1006.92 256,-1032.02 269.88,-1044.49 279.43,-1033.94 298,-1032.02 345.43,-1027.1 362.9,-1035.8 403,-1010.02 452.2,-978.38 453.25,-955.5 481,-904.02 515.86,-839.34 538.11,-755.34 548.37,-710.49"/>
<polygon fill="black" stroke="black" points="551.83,-711.02 550.6,-700.49 545,-709.49 551.83,-711.02"/>
<text text-anchor="middle" x="398.5" y="-1063.82" font-family="Courier,monospace" font-size="14.00">1</text>
<text text-anchor="middle" x="398.5" y="-1048.82" font-family="Courier,monospace" font-size="14.00">1</text>
<text text-anchor="middle" x="398.5" y="-1033.82" font-family="Courier,monospace" font-size="14.00">X</text>
<text text-anchor="middle" x="398.5" y="-1018.82" font-family="Courier,monospace" font-size="14.00">1</text>
</g>
<!-- 2&#45;&gt;2 -->
<g id="edge18" class="edge">
<title>2&#45;&gt;2</title>
<path fill="none" stroke="black" d="M199.02,-778.93C196.68,-789.17 199.67,-799.02 208,-799.02 213.47,-799.02 216.63,-794.77 217.5,-788.96"/>
<polygon fill="black" stroke="black" points="221,-788.74 216.98,-778.93 214.01,-789.1 221,-788.74"/>
<text text-anchor="middle" x="208" y="-847.82" font-family="Courier,monospace" font-size="14.00">0</text>
<text text-anchor="middle" x="208" y="-832.82" font-family="Courier,monospace" font-size="14.00">0</text>
<text text-anchor="middle" x="208" y="-817.82" font-family="Courier,monospace" font-size="14.00">X</text>
<text text-anchor="middle" x="208" y="-802.82" font-family="Courier,monospace" font-size="14.00">0</text>
</g>
<!-- 2&#45;&gt;3 -->
<g id="edge19" class="edge">
<title>2&#45;&gt;3</title>
<path fill="none" stroke="black" d="M226.22,-763.02C249.32,-763.02 290.57,-763.02 317.86,-763.02"/>
<polygon fill="black" stroke="black" points="317.92,-766.52 327.92,-763.02 317.92,-759.52 317.92,-766.52"/>
<text text-anchor="middle" x="277" y="-811.82" font-family="Courier,monospace" font-size="14.00">0</text>
<text text-anchor="middle" x="277" y="-796.82" font-family="Courier,monospace" font-size="14.00">0</text>
<text text-anchor="middle" x="277" y="-781.82" font-family="Courier,monospace" font-size="14.00">X</text>
<text text-anchor="middle" x="277" y="-766.82" font-family="Courier,monospace" font-size="14.00">1</text>
</g>
<!-- 2&#45;&gt;6 -->
<g id="edge20" class="edge">
<title>2&#45;&gt;6</title>
<path fill="none" stroke="black" d="M223.18,-752.8C228.72,-748.04 234.56,-741.9 238,-735.02 266.84,-677.33 233.29,-651.38 256,-591.02 267.72,-559.86 284.61,-559.49 298,-529.02 311.96,-497.24 307.57,-486.69 316,-453.02 323.12,-424.57 331.73,-392.11 337.72,-369.87"/>
<polygon fill="black" stroke="black" points="341.12,-370.7 340.35,-360.13 334.36,-368.87 341.12,-370.7"/>
<text text-anchor="middle" x="277" y="-639.82" font-family="Courier,monospace" font-size="14.00">0</text>
<text text-anchor="middle" x="277" y="-624.82" font-family="Courier,monospace" font-size="14.00">1</text>
<text text-anchor="middle" x="277" y="-609.82" font-family="Courier,monospace" font-size="14.00">X</text>
<text text-anchor="middle" x="277" y="-594.82" font-family="Courier,monospace" font-size="14.00">0</text>
</g>
<!-- 2&#45;&gt;7 -->
<g id="edge21" class="edge">
<title>2&#45;&gt;7</title>
<path fill="none" stroke="black" d="M226.21,-760.61C246.82,-756.76 280.73,-747.12 298,-724.02 336.09,-673.06 280.24,-634.63 316,-582.02 333.11,-556.85 351.99,-567.72 376,-549.02 389.89,-538.19 395.09,-535.75 403,-520.02 422.9,-480.44 439.98,-350.99 446.82,-293.26"/>
<polygon fill="black" stroke="black" points="450.33,-293.37 448.01,-283.03 443.37,-292.56 450.33,-293.37"/>
<text text-anchor="middle" x="346" y="-630.82" font-family="Courier,monospace" font-size="14.00">0</text>
<text text-anchor="middle" x="346" y="-615.82" font-family="Courier,monospace" font-size="14.00">1</text>
<text text-anchor="middle" x="346" y="-600.82" font-family="Courier,monospace" font-size="14.00">X</text>
<text text-anchor="middle" x="346" y="-585.82" font-family="Courier,monospace" font-size="14.00">1</text>
</g>
<!-- 2&#45;&gt;8 -->
<g id="edge22" class="edge">
<title>2&#45;&gt;8</title>
<path fill="none" stroke="black" d="M218,-778.11C226.65,-791.84 240.64,-812.17 256,-827.02 296.52,-866.19 329.77,-900.26 376,-868.02 390.9,-857.62 426.19,-745.91 442.04,-693.67"/>
<polygon fill="black" stroke="black" points="445.41,-694.65 444.94,-684.06 438.7,-692.62 445.41,-694.65"/>
<text text-anchor="middle" x="346" y="-928.82" font-family="Courier,monospace" font-size="14.00">1 1</text>
<text text-anchor="middle" x="346" y="-913.82" font-family="Courier,monospace" font-size="14.00">0 1</text>
<text text-anchor="middle" x="346" y="-898.82" font-family="Courier,monospace" font-size="14.00">X X</text>
<text text-anchor="middle" x="346" y="-883.82" font-family="Courier,monospace" font-size="14.00">X,0</text>
</g>
<!-- 3&#45;&gt;9 -->
<g id="edge27" class="edge">
<title>3&#45;&gt;9</title>
<path fill="none" stroke="black" d="M362.68,-770.68C371.62,-774.62 383.17,-779.01 394,-781.02 421.82,-786.16 422.58,-804.45 481,-772.02 507.52,-757.29 527.98,-728.81 540.6,-707.23"/>
<polygon fill="black" stroke="black" points="543.68,-708.9 545.52,-698.46 537.58,-705.47 543.68,-708.9"/>
<text text-anchor="middle" x="451" y="-838.82" font-family="Courier,monospace" font-size="14.00">1</text>
<text text-anchor="middle" x="451" y="-823.82" font-family="Courier,monospace" font-size="14.00">1</text>
<text text-anchor="middle" x="451" y="-808.82" font-family="Courier,monospace" font-size="14.00">X</text>
<text text-anchor="middle" x="451" y="-793.82" font-family="Courier,monospace" font-size="14.00">X</text>
</g>
<!-- 3&#45;&gt;3 -->
<g id="edge24" class="edge">
<title>3&#45;&gt;3</title>
<path fill="none" stroke="black" d="M337.02,-778.93C334.68,-789.17 337.67,-799.02 346,-799.02 351.47,-799.02 354.63,-794.77 355.5,-788.96"/>
<polygon fill="black" stroke="black" points="359,-788.74 354.98,-778.93 352.01,-789.1 359,-788.74"/>
<text text-anchor="middle" x="346" y="-847.82" font-family="Courier,monospace" font-size="14.00">0</text>
<text text-anchor="middle" x="346" y="-832.82" font-family="Courier,monospace" font-size="14.00">0</text>
<text text-anchor="middle" x="346" y="-817.82" font-family="Courier,monospace" font-size="14.00">X</text>
<text text-anchor="middle" x="346" y="-802.82" font-family="Courier,monospace" font-size="14.00">X</text>
</g>
<!-- 3&#45;&gt;7 -->
<g id="edge25" class="edge">
<title>3&#45;&gt;7</title>
<path fill="none" stroke="black" d="M360.21,-751.83C365.99,-746.19 372.29,-738.88 376,-731.02 391.63,-697.84 414.93,-440.19 421,-404.02 427.55,-365 437.29,-320.27 443.64,-292.33"/>
<polygon fill="black" stroke="black" points="447.07,-293.01 445.89,-282.49 440.25,-291.45 447.07,-293.01"/>
<text text-anchor="middle" x="398.5" y="-677.82" font-family="Courier,monospace" font-size="14.00">0</text>
<text text-anchor="middle" x="398.5" y="-662.82" font-family="Courier,monospace" font-size="14.00">1</text>
<text text-anchor="middle" x="398.5" y="-647.82" font-family="Courier,monospace" font-size="14.00">X</text>
<text text-anchor="middle" x="398.5" y="-632.82" font-family="Courier,monospace" font-size="14.00">X</text>
</g>
<!-- 3&#45;&gt;8 -->
<g id="edge26" class="edge">
<title>3&#45;&gt;8</title>
<path fill="none" stroke="black" d="M359.63,-751.24C377.16,-734.91 409.05,-705.18 429.88,-685.77"/>
<polygon fill="black" stroke="black" points="432.34,-688.26 437.27,-678.88 427.57,-683.14 432.34,-688.26"/>
<text text-anchor="middle" x="398.5" y="-765.82" font-family="Courier,monospace" font-size="14.00">1</text>
<text text-anchor="middle" x="398.5" y="-750.82" font-family="Courier,monospace" font-size="14.00">0</text>
<text text-anchor="middle" x="398.5" y="-735.82" font-family="Courier,monospace" font-size="14.00">X</text>
<text text-anchor="middle" x="398.5" y="-720.82" font-family="Courier,monospace" font-size="14.00">X</text>
</g>
<!-- 4&#45;&gt;9 -->
<g id="edge33" class="edge">
<title>4&#45;&gt;9</title>
<path fill="none" stroke="black" d="M224.12,-220.51C229.38,-216.76 234.77,-211.87 238,-206.02 273.85,-141.04 212.4,-100.07 256,-40.02 288.12,4.22 326.17,9.47 376,-13.02 440.29,-42.03 445.46,-71.09 481,-132.02 532.65,-220.55 549.65,-543.1 553.85,-646.73"/>
<polygon fill="black" stroke="black" points="550.36,-647.03 554.24,-656.88 557.35,-646.76 550.36,-647.03"/>
<text text-anchor="middle" x="398.5" y="-76.82" font-family="Courier,monospace" font-size="14.00">1</text>
<text text-anchor="middle" x="398.5" y="-61.82" font-family="Courier,monospace" font-size="14.00">X</text>
<text text-anchor="middle" x="398.5" y="-46.82" font-family="Courier,monospace" font-size="14.00">1</text>
<text text-anchor="middle" x="398.5" y="-31.82" font-family="Courier,monospace" font-size="14.00">1</text>
</g>
<!-- 4&#45;&gt;4 -->
<g id="edge28" class="edge">
<title>4&#45;&gt;4</title>
<path fill="none" stroke="black" d="M199.02,-244.93C196.68,-255.17 199.67,-265.02 208,-265.02 213.47,-265.02 216.63,-260.77 217.5,-254.96"/>
<polygon fill="black" stroke="black" points="221,-254.74 216.98,-244.93 214.01,-255.1 221,-254.74"/>
<text text-anchor="middle" x="208" y="-313.82" font-family="Courier,monospace" font-size="14.00">0</text>
<text text-anchor="middle" x="208" y="-298.82" font-family="Courier,monospace" font-size="14.00">X</text>
<text text-anchor="middle" x="208" y="-283.82" font-family="Courier,monospace" font-size="14.00">0</text>
<text text-anchor="middle" x="208" y="-268.82" font-family="Courier,monospace" font-size="14.00">0</text>
</g>
<!-- 4&#45;&gt;5 -->
<g id="edge29" class="edge">
<title>4&#45;&gt;5</title>
<path fill="none" stroke="black" d="M222.54,-217.67C246.26,-197.78 295.52,-156.49 323.8,-132.79"/>
<polygon fill="black" stroke="black" points="326.1,-135.42 331.52,-126.32 321.61,-130.06 326.1,-135.42"/>
<text text-anchor="middle" x="277" y="-237.82" font-family="Courier,monospace" font-size="14.00">0</text>
<text text-anchor="middle" x="277" y="-222.82" font-family="Courier,monospace" font-size="14.00">X</text>
<text text-anchor="middle" x="277" y="-207.82" font-family="Courier,monospace" font-size="14.00">0</text>
<text text-anchor="middle" x="277" y="-192.82" font-family="Courier,monospace" font-size="14.00">1</text>
</g>
<!-- 4&#45;&gt;6 -->
<g id="edge30" class="edge">
<title>4&#45;&gt;6</title>
<path fill="none" stroke="black" d="M224.22,-237.09C242.83,-247.4 274.72,-266.5 298,-288.02 307.53,-296.83 307.64,-301.09 316,-311.02 319.21,-314.83 322.71,-318.82 326.13,-322.64"/>
<polygon fill="black" stroke="black" points="323.62,-325.07 332.93,-330.13 328.8,-320.37 323.62,-325.07"/>
<text text-anchor="middle" x="277" y="-336.82" font-family="Courier,monospace" font-size="14.00">0</text>
<text text-anchor="middle" x="277" y="-321.82" font-family="Courier,monospace" font-size="14.00">X</text>
<text text-anchor="middle" x="277" y="-306.82" font-family="Courier,monospace" font-size="14.00">1</text>
<text text-anchor="middle" x="277" y="-291.82" font-family="Courier,monospace" font-size="14.00">0</text>
</g>
<!-- 4&#45;&gt;7 -->
<g id="edge31" class="edge">
<title>4&#45;&gt;7</title>
<path fill="none" stroke="black" d="M214.05,-211.98C232.14,-153.82 296.87,30.18 376,-28.02 393.36,-40.78 428.76,-178.24 443.42,-237.78"/>
<polygon fill="black" stroke="black" points="440.05,-238.74 445.82,-247.62 446.85,-237.07 440.05,-238.74"/>
<text text-anchor="middle" x="346" y="-76.82" font-family="Courier,monospace" font-size="14.00">0</text>
<text text-anchor="middle" x="346" y="-61.82" font-family="Courier,monospace" font-size="14.00">X</text>
<text text-anchor="middle" x="346" y="-46.82" font-family="Courier,monospace" font-size="14.00">1</text>
<text text-anchor="middle" x="346" y="-31.82" font-family="Courier,monospace" font-size="14.00">1</text>
</g>
<!-- 4&#45;&gt;8 -->
<g id="edge32" class="edge">
<title>4&#45;&gt;8</title>
<path fill="none" stroke="black" d="M210.65,-246.86C215.27,-293.25 229.76,-416.09 256,-446.02 293.36,-488.61 340.48,-444.88 376,-489.02 415.06,-537.54 361.67,-574.77 394,-628.02 401.25,-639.96 413.71,-649.18 425.04,-655.65"/>
<polygon fill="black" stroke="black" points="423.67,-658.88 434.15,-660.43 426.93,-652.68 423.67,-658.88"/>
<text text-anchor="middle" x="346" y="-537.82" font-family="Courier,monospace" font-size="14.00">1 1</text>
<text text-anchor="middle" x="346" y="-522.82" font-family="Courier,monospace" font-size="14.00">X X</text>
<text text-anchor="middle" x="346" y="-507.82" font-family="Courier,monospace" font-size="14.00">0 1</text>
<text text-anchor="middle" x="346" y="-492.82" font-family="Courier,monospace" font-size="14.00">X,0</text>
</g>
<!-- 5&#45;&gt;9 -->
<g id="edge37" class="edge">
<title>5&#45;&gt;9</title>
<path fill="none" stroke="black" d="M364.12,-117.87C393.12,-123.66 451.62,-139.65 481,-178.02 537.74,-252.11 551.26,-547.84 554.23,-646.67"/>
<polygon fill="black" stroke="black" points="550.74,-647.03 554.52,-656.93 557.73,-646.84 550.74,-647.03"/>
<text text-anchor="middle" x="451" y="-226.82" font-family="Courier,monospace" font-size="14.00">1</text>
<text text-anchor="middle" x="451" y="-211.82" font-family="Courier,monospace" font-size="14.00">X</text>
<text text-anchor="middle" x="451" y="-196.82" font-family="Courier,monospace" font-size="14.00">1</text>
<text text-anchor="middle" x="451" y="-181.82" font-family="Courier,monospace" font-size="14.00">X</text>
</g>
<!-- 5&#45;&gt;5 -->
<g id="edge34" class="edge">
<title>5&#45;&gt;5</title>
<path fill="none" stroke="black" d="M337.02,-130.93C334.68,-141.17 337.67,-151.02 346,-151.02 351.47,-151.02 354.63,-146.77 355.5,-140.96"/>
<polygon fill="black" stroke="black" points="359,-140.74 354.98,-130.93 352.01,-141.1 359,-140.74"/>
<text text-anchor="middle" x="346" y="-199.82" font-family="Courier,monospace" font-size="14.00">0</text>
<text text-anchor="middle" x="346" y="-184.82" font-family="Courier,monospace" font-size="14.00">X</text>
<text text-anchor="middle" x="346" y="-169.82" font-family="Courier,monospace" font-size="14.00">0</text>
<text text-anchor="middle" x="346" y="-154.82" font-family="Courier,monospace" font-size="14.00">X</text>
</g>
<!-- 5&#45;&gt;7 -->
<g id="edge35" class="edge">
<title>5&#45;&gt;7</title>
<path fill="none" stroke="black" d="M361.95,-124.44C374.27,-132.82 391.52,-146.03 403,-161.02 421,-184.5 433.99,-215.98 441.7,-238.13"/>
<polygon fill="black" stroke="black" points="438.47,-239.51 444.96,-247.89 445.11,-237.29 438.47,-239.51"/>
<text text-anchor="middle" x="398.5" y="-209.82" font-family="Courier,monospace" font-size="14.00">0</text>
<text text-anchor="middle" x="398.5" y="-194.82" font-family="Courier,monospace" font-size="14.00">X</text>
<text text-anchor="middle" x="398.5" y="-179.82" font-family="Courier,monospace" font-size="14.00">1</text>
<text text-anchor="middle" x="398.5" y="-164.82" font-family="Courier,monospace" font-size="14.00">X</text>
</g>
<!-- 5&#45;&gt;8 -->
<g id="edge36" class="edge">
<title>5&#45;&gt;8</title>
<path fill="none" stroke="black" d="M354.76,-131.21C367.31,-158.23 391.79,-214.54 403,-265.02 424.75,-362.95 408.88,-390.43 421,-490.02 427.48,-543.24 438.36,-604.94 444.79,-639.64"/>
<polygon fill="black" stroke="black" points="441.36,-640.31 446.64,-649.5 448.24,-639.03 441.36,-640.31"/>
<text text-anchor="middle" x="398.5" y="-313.82" font-family="Courier,monospace" font-size="14.00">1</text>
<text text-anchor="middle" x="398.5" y="-298.82" font-family="Courier,monospace" font-size="14.00">X</text>
<text text-anchor="middle" x="398.5" y="-283.82" font-family="Courier,monospace" font-size="14.00">0</text>
<text text-anchor="middle" x="398.5" y="-268.82" font-family="Courier,monospace" font-size="14.00">X</text>
</g>
<!-- 6&#45;&gt;9 -->
<g id="edge41" class="edge">
<title>6&#45;&gt;9</title>
<path fill="none" stroke="black" d="M356.21,-357.89C388.42,-409.92 496.38,-584.33 538.23,-651.92"/>
<polygon fill="black" stroke="black" points="535.44,-654.07 543.68,-660.73 541.39,-650.38 535.44,-654.07"/>
<text text-anchor="middle" x="451" y="-604.82" font-family="Courier,monospace" font-size="14.00">1</text>
<text text-anchor="middle" x="451" y="-589.82" font-family="Courier,monospace" font-size="14.00">X</text>
<text text-anchor="middle" x="451" y="-574.82" font-family="Courier,monospace" font-size="14.00">X</text>
<text text-anchor="middle" x="451" y="-559.82" font-family="Courier,monospace" font-size="14.00">1</text>
</g>
<!-- 6&#45;&gt;6 -->
<g id="edge38" class="edge">
<title>6&#45;&gt;6</title>
<path fill="none" stroke="black" d="M337.02,-358.93C334.68,-369.17 337.67,-379.02 346,-379.02 351.47,-379.02 354.63,-374.77 355.5,-368.96"/>
<polygon fill="black" stroke="black" points="359,-368.74 354.98,-358.93 352.01,-369.1 359,-368.74"/>
<text text-anchor="middle" x="346" y="-427.82" font-family="Courier,monospace" font-size="14.00">0</text>
<text text-anchor="middle" x="346" y="-412.82" font-family="Courier,monospace" font-size="14.00">X</text>
<text text-anchor="middle" x="346" y="-397.82" font-family="Courier,monospace" font-size="14.00">X</text>
<text text-anchor="middle" x="346" y="-382.82" font-family="Courier,monospace" font-size="14.00">0</text>
</g>
<!-- 6&#45;&gt;7 -->
<g id="edge39" class="edge">
<title>6&#45;&gt;7</title>
<path fill="none" stroke="black" d="M364.15,-341.78C375.92,-340.24 391.43,-336.78 403,-329.02 417.6,-319.21 429.32,-303.29 437.4,-289.78"/>
<polygon fill="black" stroke="black" points="440.54,-291.34 442.41,-280.91 434.45,-287.9 440.54,-291.34"/>
<text text-anchor="middle" x="398.5" y="-382.82" font-family="Courier,monospace" font-size="14.00">0</text>
<text text-anchor="middle" x="398.5" y="-367.82" font-family="Courier,monospace" font-size="14.00">X</text>
<text text-anchor="middle" x="398.5" y="-352.82" font-family="Courier,monospace" font-size="14.00">X</text>
<text text-anchor="middle" x="398.5" y="-337.82" font-family="Courier,monospace" font-size="14.00">1</text>
</g>
<!-- 6&#45;&gt;8 -->
<g id="edge40" class="edge">
<title>6&#45;&gt;8</title>
<path fill="none" stroke="black" d="M354.22,-359.39C365.59,-385.57 387.93,-438.64 403,-485.02 420.5,-538.88 435.87,-603.35 443.96,-639.3"/>
<polygon fill="black" stroke="black" points="440.64,-640.5 446.23,-649.5 447.47,-638.97 440.64,-640.5"/>
<text text-anchor="middle" x="398.5" y="-533.82" font-family="Courier,monospace" font-size="14.00">1</text>
<text text-anchor="middle" x="398.5" y="-518.82" font-family="Courier,monospace" font-size="14.00">X</text>
<text text-anchor="middle" x="398.5" y="-503.82" font-family="Courier,monospace" font-size="14.00">X</text>
<text text-anchor="middle" x="398.5" y="-488.82" font-family="Courier,monospace" font-size="14.00">0</text>
</g>
<!-- 7&#45;&gt;9 -->
<g id="edge43" class="edge">
<title>7&#45;&gt;9</title>
<path fill="none" stroke="black" d="M463.33,-278.48C476.38,-294.77 497.38,-323.58 508,-352.02 546.34,-454.7 553.63,-586.3 554.86,-646.43"/>
<polygon fill="black" stroke="black" points="551.37,-646.85 555.03,-656.8 558.37,-646.74 551.37,-646.85"/>
<text text-anchor="middle" x="503.5" y="-400.82" font-family="Courier,monospace" font-size="14.00">1</text>
<text text-anchor="middle" x="503.5" y="-385.82" font-family="Courier,monospace" font-size="14.00">X</text>
<text text-anchor="middle" x="503.5" y="-370.82" font-family="Courier,monospace" font-size="14.00">X</text>
<text text-anchor="middle" x="503.5" y="-355.82" font-family="Courier,monospace" font-size="14.00">X</text>
</g>
<!-- 7&#45;&gt;7 -->
<g id="edge42" class="edge">
<title>7&#45;&gt;7</title>
<path fill="none" stroke="black" d="M442.02,-280.93C439.68,-291.17 442.67,-301.02 451,-301.02 456.47,-301.02 459.63,-296.77 460.5,-290.96"/>
<polygon fill="black" stroke="black" points="464,-290.74 459.98,-280.93 457.01,-291.1 464,-290.74"/>
<text text-anchor="middle" x="451" y="-349.82" font-family="Courier,monospace" font-size="14.00">0</text>
<text text-anchor="middle" x="451" y="-334.82" font-family="Courier,monospace" font-size="14.00">X</text>
<text text-anchor="middle" x="451" y="-319.82" font-family="Courier,monospace" font-size="14.00">X</text>
<text text-anchor="middle" x="451" y="-304.82" font-family="Courier,monospace" font-size="14.00">X</text>
</g>
<!-- 8&#45;&gt;8 -->
<g id="edge44" class="edge">
<title>8&#45;&gt;8</title>
<path fill="none" stroke="black" d="M442.02,-682.93C439.68,-693.17 442.67,-703.02 451,-703.02 456.47,-703.02 459.63,-698.77 460.5,-692.96"/>
<polygon fill="black" stroke="black" points="464,-692.74 459.98,-682.93 457.01,-693.1 464,-692.74"/>
<text text-anchor="middle" x="451" y="-751.82" font-family="Courier,monospace" font-size="14.00">X</text>
<text text-anchor="middle" x="451" y="-736.82" font-family="Courier,monospace" font-size="14.00">X</text>
<text text-anchor="middle" x="451" y="-721.82" font-family="Courier,monospace" font-size="14.00">X</text>
<text text-anchor="middle" x="451" y="-706.82" font-family="Courier,monospace" font-size="14.00">X</text>
</g>
<!-- init -->
<g id="node11" class="node">
<title>init</title>
</g>
<!-- init&#45;&gt;0 -->
<g id="edge1" class="edge">
<title>init&#45;&gt;0</title>
<path fill="none" stroke="black" d="M36.2,-630.02C47.33,-630.02 62.06,-630.02 74.76,-630.02"/>
<polygon fill="black" stroke="black" points="74.82,-633.52 84.82,-630.02 74.82,-626.52 74.82,-633.52"/>
</g>
</g>
</svg>
