<?xml version="1.0" encoding="UTF-8" standalone="no"?>
<!DOCTYPE svg PUBLIC "-//W3C//DTD SVG 1.1//EN"
 "http://www.w3.org/Graphics/SVG/1.1/DTD/svg11.dtd">
<!-- Generated by graphviz version 2.43.0 (0)
 -->
<!-- Title: %3 Pages: 1 -->
<svg width="284pt" height="93pt"
 viewBox="0.00 0.00 284.49 93.20" xmlns="http://www.w3.org/2000/svg" xmlns:xlink="http://www.w3.org/1999/xlink">
<g id="graph0" class="graph" transform="scale(1 1) rotate(0) translate(4 89.2)">
<title>%3</title>
<polygon fill="white" stroke="transparent" points="-4,4 -4,-89.2 280.49,-89.2 280.49,4 -4,4"/>
<!-- fake -->
<g id="node1" class="node">
<title>fake</title>
</g>
<!-- a0 -->
<g id="node3" class="node">
<title>a0</title>
<ellipse fill="none" stroke="black" cx="124.19" cy="-26.1" rx="22.18" ry="22.18"/>
<ellipse fill="none" stroke="black" cx="124.19" cy="-26.1" rx="26.2" ry="26.2"/>
<text text-anchor="middle" x="124.19" y="-22.4" font-family="Times,serif" font-size="14.00">a0</text>
</g>
<!-- fake&#45;&gt;a0 -->
<g id="edge1" class="edge">
<title>fake&#45;&gt;a0</title>
<path fill="none" stroke="black" stroke-width="2" d="M61.3,-26.1C69.7,-26.1 78.92,-26.1 87.62,-26.1"/>
<polygon fill="black" stroke="black" stroke-width="2" points="87.89,-29.6 97.89,-26.1 87.89,-22.6 87.89,-29.6"/>
</g>
<!-- a1 -->
<g id="node2" class="node">
<title>a1</title>
<ellipse fill="none" stroke="black" cx="254.39" cy="-26.1" rx="22.2" ry="22.2"/>
<text text-anchor="middle" x="254.39" y="-22.4" font-family="Times,serif" font-size="14.00">a1</text>
</g>
<!-- a1&#45;&gt;a0 -->
<g id="edge4" class="edge">
<title>a1&#45;&gt;a0</title>
<path fill="none" stroke="black" d="M234.94,-15.01C228.61,-11.8 221.35,-8.72 214.29,-7.1 194.37,-2.51 188.3,-2.88 168.29,-7.1 164.63,-7.87 160.91,-8.97 157.26,-10.26"/>
<polygon fill="black" stroke="black" points="155.85,-7.05 147.86,-14.01 158.45,-13.55 155.85,-7.05"/>
<text text-anchor="middle" x="191.29" y="-10.9" font-family="Times,serif" font-size="14.00">empty</text>
</g>
<!-- a0&#45;&gt;a1 -->
<g id="edge2" class="edge">
<title>a0&#45;&gt;a1</title>
<path fill="none" stroke="black" d="M150.52,-26.1C170.96,-26.1 199.83,-26.1 221.79,-26.1"/>
<polygon fill="black" stroke="black" points="221.94,-29.6 231.94,-26.1 221.94,-22.6 221.94,-29.6"/>
<text text-anchor="middle" x="191.29" y="-29.9" font-family="Times,serif" font-size="14.00">clean</text>
</g>
<!-- a0&#45;&gt;a0 -->
<g id="edge3" class="edge">
<title>a0&#45;&gt;a0</title>
<path fill="none" stroke="black" d="M116.02,-51.03C115.45,-61.4 118.18,-70.2 124.19,-70.2 128.05,-70.2 130.55,-66.59 131.7,-61.27"/>
<polygon fill="black" stroke="black" points="135.21,-61.24 132.37,-51.03 128.23,-60.78 135.21,-61.24"/>
<text text-anchor="middle" x="124.19" y="-74" font-family="Times,serif" font-size="14.00">clean</text>
</g>
</g>
</svg>
