<?xml version="1.0" encoding="UTF-8" standalone="no"?>
<!DOCTYPE svg PUBLIC "-//W3C//DTD SVG 1.1//EN"
 "http://www.w3.org/Graphics/SVG/1.1/DTD/svg11.dtd">
<!-- Generated by graphviz version 2.43.0 (0)
 -->
<!-- Title: G Pages: 1 -->
<svg width="3850pt" height="1185pt"
 viewBox="0.00 0.00 3850.13 1185.00" xmlns="http://www.w3.org/2000/svg" xmlns:xlink="http://www.w3.org/1999/xlink">
<g id="graph0" class="graph" transform="scale(1 1) rotate(0) translate(4 1181)">
<title>G</title>
<polygon fill="white" stroke="transparent" points="-4,4 -4,-1181 3846.13,-1181 3846.13,4 -4,4"/>
<g id="clust1" class="cluster">
<title>cluster_goal_16</title>
<polygon fill="palegreen" stroke="palegreen" points="17.07,-116 17.07,-191 1895.07,-191 1895.07,-116 17.07,-116"/>
<text text-anchor="middle" x="956.07" y="-175.8" font-family="Times,serif" font-size="14.00">GOAL</text>
</g>
<g id="clust2" class="cluster">
<title>cluster_goal_18</title>
<polygon fill="palegreen" stroke="palegreen" points="1952.07,-8 1952.07,-83 3820.07,-83 3820.07,-8 1952.07,-8"/>
<text text-anchor="middle" x="2886.07" y="-67.8" font-family="Times,serif" font-size="14.00">GOAL</text>
</g>
<g id="clust3" class="cluster">
<title>cluster_init</title>
<polygon fill="lightblue" stroke="lightblue" points="1066.07,-1094 1066.07,-1169 2846.07,-1169 2846.07,-1094 1066.07,-1094"/>
<text text-anchor="middle" x="1956.07" y="-1153.8" font-family="Times,serif" font-size="14.00">INIT</text>
</g>
<!-- 0 -->
<g id="node1" class="node">
<title>0</title>
<ellipse fill="none" stroke="black" cx="1956.07" cy="-1120" rx="881.94" ry="18"/>
<text text-anchor="middle" x="1956.07" y="-1116.3" font-family="Times,serif" font-size="14.00">{ (not (clean)), (current_state_0 s0_a0), (not (current_state_0 s0_a1)), (not (empty)), (f_copy), (not (f_goal)), (not (q_1)), (not (q_1s)), (not (q_2s)), (not (q_3s)), (q_4), (not (q_5)), (not (q_5s)) }</text>
</g>
<!-- 1 -->
<g id="node2" class="node">
<title>1</title>
<ellipse fill="none" stroke="black" cx="1956.07" cy="-1033" rx="886.54" ry="18"/>
<text text-anchor="middle" x="1956.07" y="-1029.3" font-family="Times,serif" font-size="14.00">{ (not (clean)), (current_state_0 s0_a0), (not (current_state_0 s0_a1)), (not (empty)), (f_sync), (not (f_goal)), (not (q_1)), (not (q_1s)), (not (q_2s)), (not (q_3s)), (q_4s), (not (q_5)), (not (q_5s)) }</text>
</g>
<!-- 0&#45;&gt;1 -->
<g id="edge1" class="edge">
<title>0&#45;&gt;1</title>
<path fill="none" stroke="#ecbe53" d="M1956.07,-1101.8C1956.07,-1090.16 1956.07,-1074.55 1956.07,-1061.24"/>
<polygon fill="#ecbe53" stroke="#ecbe53" points="1959.57,-1061.18 1956.07,-1051.18 1952.57,-1061.18 1959.57,-1061.18"/>
<text text-anchor="middle" x="1980.57" y="-1072.8" font-family="Times,serif" font-size="14.00" fill="#ecbe53">o_copy</text>
</g>
<!-- 2 -->
<g id="node3" class="node">
<title>2</title>
<ellipse fill="none" stroke="black" cx="1956.07" cy="-946" rx="925.54" ry="18"/>
<text text-anchor="middle" x="1956.07" y="-942.3" font-family="Times,serif" font-size="14.00">{ (not (clean)), (current_state_0 s0_a0), (not (current_state_0 s0_a1)), (not (empty)), (f_sync), (not (f_goal)), (not (q_1)), (not (q_1s)), (q_2s), (q_3s), (not ((q_4))) (not ((q_4s))), (not (q_5)), (not (q_5s)) }</text>
</g>
<!-- 1&#45;&gt;2 -->
<g id="edge2" class="edge">
<title>1&#45;&gt;2</title>
<path fill="none" stroke="#553b79" d="M1956.07,-1014.8C1956.07,-1003.16 1956.07,-987.55 1956.07,-974.24"/>
<polygon fill="#553b79" stroke="#553b79" points="1959.57,-974.18 1956.07,-964.18 1952.57,-974.18 1959.57,-974.18"/>
<text text-anchor="middle" x="1999.57" y="-985.8" font-family="Times,serif" font-size="14.00" fill="#553b79">o_sync_q_4s</text>
</g>
<!-- 3 -->
<g id="node4" class="node">
<title>3</title>
<ellipse fill="none" stroke="black" cx="1956.07" cy="-859" rx="900.64" ry="18"/>
<text text-anchor="middle" x="1956.07" y="-855.3" font-family="Times,serif" font-size="14.00">{ (not (clean)), (current_state_0 s0_a0), (not (current_state_0 s0_a1)), (not (empty)), (f_sync), (not (f_goal)), (q_1), (not (q_1s)), (q_2s), (not (q_3s)), (not ((q_4))) (not ((q_4s))), (q_5), (not (q_5s)) }</text>
</g>
<!-- 2&#45;&gt;3 -->
<g id="edge3" class="edge">
<title>2&#45;&gt;3</title>
<path fill="none" stroke="#07ecac" d="M1956.07,-927.8C1956.07,-916.16 1956.07,-900.55 1956.07,-887.24"/>
<polygon fill="#07ecac" stroke="#07ecac" points="1959.57,-887.18 1956.07,-877.18 1952.57,-887.18 1959.57,-887.18"/>
<text text-anchor="middle" x="1999.57" y="-898.8" font-family="Times,serif" font-size="14.00" fill="#07ecac">o_sync_q_3s</text>
</g>
<!-- 4 -->
<g id="node5" class="node">
<title>4</title>
<ellipse fill="none" stroke="black" cx="1956.07" cy="-772" rx="925.54" ry="18"/>
<text text-anchor="middle" x="1956.07" y="-768.3" font-family="Times,serif" font-size="14.00">{ (not (clean)), (current_state_0 s0_a0), (not (current_state_0 s0_a1)), (not (empty)), (f_sync), (not (f_goal)), (q_1), (not (q_1s)), (not (q_2s)), (not (q_3s)), (not ((q_4))) (not ((q_4s))), (q_5), (not (q_5s)) }</text>
</g>
<!-- 3&#45;&gt;4 -->
<g id="edge4" class="edge">
<title>3&#45;&gt;4</title>
<path fill="none" stroke="#e9ab2d" d="M1956.07,-840.8C1956.07,-829.16 1956.07,-813.55 1956.07,-800.24"/>
<polygon fill="#e9ab2d" stroke="#e9ab2d" points="1959.57,-800.18 1956.07,-790.18 1952.57,-800.18 1959.57,-800.18"/>
<text text-anchor="middle" x="1999.57" y="-811.8" font-family="Times,serif" font-size="14.00" fill="#e9ab2d">o_sync_q_2s</text>
</g>
<!-- 5 -->
<g id="node6" class="node">
<title>5</title>
<ellipse fill="none" stroke="black" cx="1956.07" cy="-685" rx="931.23" ry="18"/>
<text text-anchor="middle" x="1956.07" y="-681.3" font-family="Times,serif" font-size="14.00">{ (not (clean)), (current_state_0 s0_a0), (not (current_state_0 s0_a1)), (not (empty)), (f_world), (not (f_goal)), (q_1), (not (q_1s)), (not (q_2s)), (not (q_3s)), (not ((q_4))) (not ((q_4s))), (q_5), (not (q_5s)) }</text>
</g>
<!-- 4&#45;&gt;5 -->
<g id="edge5" class="edge">
<title>4&#45;&gt;5</title>
<path fill="none" stroke="#dc1a14" d="M1956.07,-753.8C1956.07,-742.16 1956.07,-726.55 1956.07,-713.24"/>
<polygon fill="#dc1a14" stroke="#dc1a14" points="1959.57,-713.18 1956.07,-703.18 1952.57,-713.18 1959.57,-713.18"/>
<text text-anchor="middle" x="1984.07" y="-724.8" font-family="Times,serif" font-size="14.00" fill="#dc1a14">o_world</text>
</g>
<!-- 6 -->
<g id="node7" class="node">
<title>6</title>
<ellipse fill="none" stroke="black" cx="1046.07" cy="-598" rx="901.44" ry="18"/>
<text text-anchor="middle" x="1046.07" y="-594.3" font-family="Times,serif" font-size="14.00">{ (clean), (current_state_0 s0_a0), (not (current_state_0 s0_a1)), (not (empty)), (f_copy), (not (f_goal)), (q_1), (not (q_1s)), (not (q_2s)), (not (q_3s)), (not ((q_4))) (not ((q_4s))), (q_5), (not (q_5s)) }</text>
</g>
<!-- 5&#45;&gt;6 -->
<g id="edge6" class="edge">
<title>5&#45;&gt;6</title>
<path fill="none" stroke="#575c70" d="M1777.36,-667.31C1620.86,-652.69 1394.16,-631.51 1234.76,-616.63"/>
<polygon fill="#575c70" stroke="#575c70" points="1234.64,-613.1 1224.36,-615.65 1233.99,-620.07 1234.64,-613.1"/>
<text text-anchor="middle" x="1595.07" y="-637.8" font-family="Times,serif" font-size="14.00" fill="#575c70">clean_0_a0</text>
</g>
<!-- 7 -->
<g id="node8" class="node">
<title>7</title>
<ellipse fill="none" stroke="black" cx="2868.07" cy="-598" rx="901.44" ry="18"/>
<text text-anchor="middle" x="2868.07" y="-594.3" font-family="Times,serif" font-size="14.00">{ (clean), (not (current_state_0 s0_a0)), (current_state_0 s0_a1), (not (empty)), (f_copy), (not (f_goal)), (q_1), (not (q_1s)), (not (q_2s)), (not (q_3s)), (not ((q_4))) (not ((q_4s))), (q_5), (not (q_5s)) }</text>
</g>
<!-- 5&#45;&gt;7 -->
<g id="edge7" class="edge">
<title>5&#45;&gt;7</title>
<path fill="none" stroke="#575c70" d="M2134.89,-667.33C2291.71,-652.72 2519,-631.53 2678.84,-616.64"/>
<polygon fill="#575c70" stroke="#575c70" points="2679.64,-620.08 2689.27,-615.66 2678.99,-613.11 2679.64,-620.08"/>
<text text-anchor="middle" x="2506.07" y="-637.8" font-family="Times,serif" font-size="14.00" fill="#575c70">clean_0_a0</text>
</g>
<!-- 8 -->
<g id="node9" class="node">
<title>8</title>
<ellipse fill="none" stroke="black" cx="1037.07" cy="-511" rx="900.64" ry="18"/>
<text text-anchor="middle" x="1037.07" y="-507.3" font-family="Times,serif" font-size="14.00">{ (clean), (current_state_0 s0_a0), (not (current_state_0 s0_a1)), (not (empty)), (f_sync), (not (f_goal)), (not (q_1)), (q_1s), (not (q_2s)), (not (q_3s)), (not ((q_4))) (not ((q_4s))), (not (q_5)), (q_5s) }</text>
</g>
<!-- 6&#45;&gt;8 -->
<g id="edge8" class="edge">
<title>6&#45;&gt;8</title>
<path fill="none" stroke="#2a03e9" d="M1044.24,-579.8C1043.01,-568.16 1041.36,-552.55 1039.95,-539.24"/>
<polygon fill="#2a03e9" stroke="#2a03e9" points="1043.42,-538.75 1038.88,-529.18 1036.46,-539.49 1043.42,-538.75"/>
<text text-anchor="middle" x="1067.57" y="-550.8" font-family="Times,serif" font-size="14.00" fill="#2a03e9">o_copy</text>
</g>
<!-- 9 -->
<g id="node10" class="node">
<title>9</title>
<ellipse fill="none" stroke="black" cx="2872.07" cy="-511" rx="900.64" ry="18"/>
<text text-anchor="middle" x="2872.07" y="-507.3" font-family="Times,serif" font-size="14.00">{ (clean), (not (current_state_0 s0_a0)), (current_state_0 s0_a1), (not (empty)), (f_sync), (not (f_goal)), (not (q_1)), (q_1s), (not (q_2s)), (not (q_3s)), (not ((q_4))) (not ((q_4s))), (not (q_5)), (q_5s) }</text>
</g>
<!-- 7&#45;&gt;9 -->
<g id="edge9" class="edge">
<title>7&#45;&gt;9</title>
<path fill="none" stroke="#0248dd" d="M2868.87,-579.8C2869.42,-568.16 2870.16,-552.55 2870.78,-539.24"/>
<polygon fill="#0248dd" stroke="#0248dd" points="2874.28,-539.33 2871.26,-529.18 2867.29,-539 2874.28,-539.33"/>
<text text-anchor="middle" x="2895.57" y="-550.8" font-family="Times,serif" font-size="14.00" fill="#0248dd">o_copy</text>
</g>
<!-- 10 -->
<g id="node11" class="node">
<title>10</title>
<ellipse fill="none" stroke="black" cx="1001.07" cy="-424" rx="925.54" ry="18"/>
<text text-anchor="middle" x="1001.07" y="-420.3" font-family="Times,serif" font-size="14.00">{ (clean), (current_state_0 s0_a0), (not (current_state_0 s0_a1)), (not (empty)), (f_sync), (not (f_goal)), (not (q_1)), (not (q_1s)), (not (q_2s)), (not (q_3s)), (not ((q_4))) (not ((q_4s))), (not (q_5)), (q_5s) }</text>
</g>
<!-- 8&#45;&gt;10 -->
<g id="edge10" class="edge">
<title>8&#45;&gt;10</title>
<path fill="none" stroke="#7204e9" d="M1029.78,-492.8C1024.75,-480.93 1017.98,-464.93 1012.27,-451.45"/>
<polygon fill="#7204e9" stroke="#7204e9" points="1015.46,-450.02 1008.34,-442.18 1009.02,-452.75 1015.46,-450.02"/>
<text text-anchor="middle" x="1065.57" y="-463.8" font-family="Times,serif" font-size="14.00" fill="#7204e9">o_sync_q_1s</text>
</g>
<!-- 11 -->
<g id="node12" class="node">
<title>11</title>
<ellipse fill="none" stroke="black" cx="2876.07" cy="-424" rx="925.54" ry="18"/>
<text text-anchor="middle" x="2876.07" y="-420.3" font-family="Times,serif" font-size="14.00">{ (clean), (not (current_state_0 s0_a0)), (current_state_0 s0_a1), (not (empty)), (f_sync), (not (f_goal)), (not (q_1)), (q_1s), (not (q_2s)), (not (q_3s)), (not ((q_4))) (not ((q_4s))), (not (q_5)), (not (q_5s)) }</text>
</g>
<!-- 9&#45;&gt;11 -->
<g id="edge11" class="edge">
<title>9&#45;&gt;11</title>
<path fill="none" stroke="#0b5d0a" d="M2872.87,-492.8C2873.42,-481.16 2874.16,-465.55 2874.78,-452.24"/>
<polygon fill="#0b5d0a" stroke="#0b5d0a" points="2878.28,-452.33 2875.26,-442.18 2871.29,-452 2878.28,-452.33"/>
<text text-anchor="middle" x="2918.57" y="-463.8" font-family="Times,serif" font-size="14.00" fill="#0b5d0a">o_sync_q_5s</text>
</g>
<!-- 12 -->
<g id="node13" class="node">
<title>12</title>
<ellipse fill="none" stroke="black" cx="963.07" cy="-337" rx="950.73" ry="18"/>
<text text-anchor="middle" x="963.07" y="-333.3" font-family="Times,serif" font-size="14.00">{ (clean), (current_state_0 s0_a0), (not (current_state_0 s0_a1)), (not (empty)), (f_sync), (not (f_goal)), (not (q_1)), (not (q_1s)), (not (q_2s)), (not (q_3s)), (not ((q_4))) (not ((q_4s))), (not (q_5)), (not (q_5s)) }</text>
</g>
<!-- 10&#45;&gt;12 -->
<g id="edge12" class="edge">
<title>10&#45;&gt;12</title>
<path fill="none" stroke="#f6250c" d="M993.38,-405.8C988.07,-393.93 980.92,-377.93 974.89,-364.45"/>
<polygon fill="#f6250c" stroke="#f6250c" points="978.02,-362.88 970.74,-355.18 971.63,-365.73 978.02,-362.88"/>
<text text-anchor="middle" x="1028.57" y="-376.8" font-family="Times,serif" font-size="14.00" fill="#f6250c">o_sync_q_5s</text>
</g>
<!-- 13 -->
<g id="node14" class="node">
<title>13</title>
<ellipse fill="none" stroke="black" cx="2884.07" cy="-337" rx="950.73" ry="18"/>
<text text-anchor="middle" x="2884.07" y="-333.3" font-family="Times,serif" font-size="14.00">{ (clean), (not (current_state_0 s0_a0)), (current_state_0 s0_a1), (not (empty)), (f_sync), (not (f_goal)), (not (q_1)), (not (q_1s)), (not (q_2s)), (not (q_3s)), (not ((q_4))) (not ((q_4s))), (not (q_5)), (not (q_5s)) }</text>
</g>
<!-- 11&#45;&gt;13 -->
<g id="edge13" class="edge">
<title>11&#45;&gt;13</title>
<path fill="none" stroke="#1c85d1" d="M2877.68,-405.8C2878.78,-394.16 2880.25,-378.55 2881.5,-365.24"/>
<polygon fill="#1c85d1" stroke="#1c85d1" points="2885,-365.46 2882.45,-355.18 2878.03,-364.8 2885,-365.46"/>
<text text-anchor="middle" x="2923.57" y="-376.8" font-family="Times,serif" font-size="14.00" fill="#1c85d1">o_sync_q_1s</text>
</g>
<!-- 14 -->
<g id="node15" class="node">
<title>14</title>
<ellipse fill="none" stroke="black" cx="956.07" cy="-250" rx="956.13" ry="18"/>
<text text-anchor="middle" x="956.07" y="-246.3" font-family="Times,serif" font-size="14.00">{ (clean), (current_state_0 s0_a0), (not (current_state_0 s0_a1)), (not (empty)), (f_world), (not (f_goal)), (not (q_1)), (not (q_1s)), (not (q_2s)), (not (q_3s)), (not ((q_4))) (not ((q_4s))), (not (q_5)), (not (q_5s)) }</text>
</g>
<!-- 12&#45;&gt;14 -->
<g id="edge14" class="edge">
<title>12&#45;&gt;14</title>
<path fill="none" stroke="#ec56fa" d="M961.65,-318.8C960.69,-307.16 959.4,-291.55 958.31,-278.24"/>
<polygon fill="#ec56fa" stroke="#ec56fa" points="961.79,-277.85 957.48,-268.18 954.81,-278.43 961.79,-277.85"/>
<text text-anchor="middle" x="988.07" y="-289.8" font-family="Times,serif" font-size="14.00" fill="#ec56fa">o_world</text>
</g>
<!-- 15 -->
<g id="node16" class="node">
<title>15</title>
<ellipse fill="none" stroke="black" cx="2886.07" cy="-250" rx="956.13" ry="18"/>
<text text-anchor="middle" x="2886.07" y="-246.3" font-family="Times,serif" font-size="14.00">{ (clean), (not (current_state_0 s0_a0)), (current_state_0 s0_a1), (not (empty)), (f_world), (not (f_goal)), (not (q_1)), (not (q_1s)), (not (q_2s)), (not (q_3s)), (not ((q_4))) (not ((q_4s))), (not (q_5)), (not (q_5s)) }</text>
</g>
<!-- 13&#45;&gt;15 -->
<g id="edge15" class="edge">
<title>13&#45;&gt;15</title>
<path fill="none" stroke="#70c8da" d="M2884.47,-318.8C2884.74,-307.16 2885.11,-291.55 2885.42,-278.24"/>
<polygon fill="#70c8da" stroke="#70c8da" points="2888.92,-278.26 2885.66,-268.18 2881.93,-278.09 2888.92,-278.26"/>
<text text-anchor="middle" x="2913.07" y="-289.8" font-family="Times,serif" font-size="14.00" fill="#70c8da">o_world</text>
</g>
<!-- 16 -->
<g id="node17" class="node">
<title>16</title>
<ellipse fill="none" stroke="black" cx="956.07" cy="-142" rx="931.23" ry="18"/>
<text text-anchor="middle" x="956.07" y="-138.3" font-family="Times,serif" font-size="14.00">{ (clean), (current_state_0 s0_a0), (not (current_state_0 s0_a1)), (not (empty)), (f_world), (f_goal), (not (q_1)), (not (q_1s)), (not (q_2s)), (not (q_3s)), (not ((q_4))) (not ((q_4s))), (not (q_5)), (not (q_5s)) }</text>
</g>
<!-- 14&#45;&gt;16 -->
<g id="edge16" class="edge">
<title>14&#45;&gt;16</title>
<path fill="none" stroke="#4ec16f" d="M956.07,-231.97C956.07,-215.38 956.07,-189.88 956.07,-170.43"/>
<polygon fill="#4ec16f" stroke="#4ec16f" points="959.57,-170.34 956.07,-160.34 952.57,-170.34 959.57,-170.34"/>
<text text-anchor="middle" x="979.07" y="-202.8" font-family="Times,serif" font-size="14.00" fill="#4ec16f">o_goal</text>
</g>
<!-- 17 -->
<g id="node18" class="node">
<title>17</title>
<ellipse fill="none" stroke="black" cx="2886.07" cy="-142" rx="931.23" ry="18"/>
<text text-anchor="middle" x="2886.07" y="-138.3" font-family="Times,serif" font-size="14.00">{ (clean), (not (current_state_0 s0_a0)), (current_state_0 s0_a1), (not (empty)), (f_world), (f_goal), (not (q_1)), (not (q_1s)), (not (q_2s)), (not (q_3s)), (not ((q_4))) (not ((q_4s))), (not (q_5)), (not (q_5s)) }</text>
</g>
<!-- 15&#45;&gt;17 -->
<g id="edge17" class="edge">
<title>15&#45;&gt;17</title>
<path fill="none" stroke="#524f8c" d="M2886.07,-231.97C2886.07,-215.38 2886.07,-189.88 2886.07,-170.43"/>
<polygon fill="#524f8c" stroke="#524f8c" points="2889.57,-170.34 2886.07,-160.34 2882.57,-170.34 2889.57,-170.34"/>
<text text-anchor="middle" x="2909.07" y="-202.8" font-family="Times,serif" font-size="14.00" fill="#524f8c">o_goal</text>
</g>
<!-- 18 -->
<g id="node19" class="node">
<title>18</title>
<ellipse fill="none" stroke="black" cx="2886.07" cy="-34" rx="926.34" ry="18"/>
<text text-anchor="middle" x="2886.07" y="-30.3" font-family="Times,serif" font-size="14.00">{ (not (clean)), (current_state_0 s0_a0), (not (current_state_0 s0_a1)), (empty), (f_copy), (f_goal), (not (q_1)), (not (q_1s)), (not (q_2s)), (not (q_3s)), (not ((q_4))) (not ((q_4s))), (not (q_5)), (not (q_5s)) }</text>
</g>
<!-- 17&#45;&gt;18 -->
<g id="edge18" class="edge">
<title>17&#45;&gt;18</title>
<path fill="none" stroke="#58aaf6" d="M2886.07,-123.97C2886.07,-107.38 2886.07,-81.88 2886.07,-62.43"/>
<polygon fill="#58aaf6" stroke="#58aaf6" points="2889.57,-62.34 2886.07,-52.34 2882.57,-62.34 2889.57,-62.34"/>
<text text-anchor="middle" x="2928.57" y="-94.8" font-family="Times,serif" font-size="14.00" fill="#58aaf6">empty_0_a1</text>
</g>
</g>
</svg>
