<?xml version="1.0" encoding="UTF-8" standalone="no"?>
<!DOCTYPE svg PUBLIC "-//W3C//DTD SVG 1.1//EN"
 "http://www.w3.org/Graphics/SVG/1.1/DTD/svg11.dtd">
<!-- Generated by graphviz version 2.43.0 (0)
 -->
<!-- Title: G Pages: 1 -->
<svg width="3621pt" height="1098pt"
 viewBox="0.00 0.00 3621.00 1098.00" xmlns="http://www.w3.org/2000/svg" xmlns:xlink="http://www.w3.org/1999/xlink">
<g id="graph0" class="graph" transform="scale(1 1) rotate(0) translate(4 1094)">
<title>G</title>
<polygon fill="white" stroke="transparent" points="-4,4 -4,-1094 3617,-1094 3617,4 -4,4"/>
<g id="clust1" class="cluster">
<title>cluster_goal_10</title>
<polygon fill="palegreen" stroke="palegreen" points="38,-290 38,-365 1808,-365 1808,-290 38,-290"/>
<text text-anchor="middle" x="923" y="-349.8" font-family="Times,serif" font-size="14.00">GOAL</text>
</g>
<g id="clust2" class="cluster">
<title>cluster_goal_14</title>
<polygon fill="palegreen" stroke="palegreen" points="1785,-8 1785,-83 3605,-83 3605,-8 1785,-8"/>
<text text-anchor="middle" x="2695" y="-67.8" font-family="Times,serif" font-size="14.00">GOAL</text>
</g>
<g id="clust3" class="cluster">
<title>cluster_init</title>
<polygon fill="lightblue" stroke="lightblue" points="8,-1007 8,-1082 2016,-1082 2016,-1007 8,-1007"/>
<text text-anchor="middle" x="1012" y="-1066.8" font-family="Times,serif" font-size="14.00">INIT</text>
</g>
<!-- 0 -->
<g id="node1" class="node">
<title>0</title>
<ellipse fill="none" stroke="black" cx="1012" cy="-1033" rx="995.92" ry="18"/>
<text text-anchor="middle" x="1012" y="-1029.3" font-family="Times,serif" font-size="14.00">{ (not (clean)), (current_state_0 s0_a0), (not (current_state_0 s0_a1)), (not (empty)), (f_copy), (not (q_1)), (not (q_1d)), (not (q_1s)), (q_4), (not (q_2d)), (not (q_2s)), (not (q_3d)), (not (q_3s)), (not (q_5)), (not (q_5s)) }</text>
</g>
<!-- 1 -->
<g id="node2" class="node">
<title>1</title>
<ellipse fill="none" stroke="black" cx="1012" cy="-946" rx="999.72" ry="18"/>
<text text-anchor="middle" x="1012" y="-942.3" font-family="Times,serif" font-size="14.00">{ (not (clean)), (current_state_0 s0_a0), (not (current_state_0 s0_a1)), (not (empty)), (f_sync), (not (q_1)), (not (q_1d)), (not (q_1s)), (q_4s), (not (q_2d)), (not (q_2s)), (not (q_3d)), (not (q_3s)), (not (q_5)), (not (q_5s)) }</text>
</g>
<!-- 0&#45;&gt;1 -->
<g id="edge1" class="edge">
<title>0&#45;&gt;1</title>
<path fill="none" stroke="#ac25de" d="M1012,-1014.8C1012,-1003.16 1012,-987.55 1012,-974.24"/>
<polygon fill="#ac25de" stroke="#ac25de" points="1015.5,-974.18 1012,-964.18 1008.5,-974.18 1015.5,-974.18"/>
<text text-anchor="middle" x="1036.5" y="-985.8" font-family="Times,serif" font-size="14.00" fill="#ac25de">o_copy</text>
</g>
<!-- 2 -->
<g id="node3" class="node">
<title>2</title>
<ellipse fill="none" stroke="black" cx="1012" cy="-859" rx="950.73" ry="18"/>
<text text-anchor="middle" x="1012" y="-855.3" font-family="Times,serif" font-size="14.00">{ (not (clean)), (current_state_0 s0_a0), (not (current_state_0 s0_a1)), (not (empty)), (f_sync), (not (q_1)), (not (q_1d)), (not (q_1s)), (q_4d), (not (q_2d)), (q_2s), (not (q_3d)), (q_3s), (not (q_5)), (not (q_5s)) }</text>
</g>
<!-- 1&#45;&gt;2 -->
<g id="edge2" class="edge">
<title>1&#45;&gt;2</title>
<path fill="none" stroke="#cb7bd6" d="M1012,-927.8C1012,-916.16 1012,-900.55 1012,-887.24"/>
<polygon fill="#cb7bd6" stroke="#cb7bd6" points="1015.5,-887.18 1012,-877.18 1008.5,-887.18 1015.5,-887.18"/>
<text text-anchor="middle" x="1055.5" y="-898.8" font-family="Times,serif" font-size="14.00" fill="#cb7bd6">o_sync_q_4s</text>
</g>
<!-- 3 -->
<g id="node4" class="node">
<title>3</title>
<ellipse fill="none" stroke="black" cx="1012" cy="-772" rx="901.44" ry="18"/>
<text text-anchor="middle" x="1012" y="-768.3" font-family="Times,serif" font-size="14.00">{ (not (clean)), (current_state_0 s0_a0), (not (current_state_0 s0_a1)), (not (empty)), (f_sync), (q_1), (not (q_1d)), (not (q_1s)), (q_4d), (not (q_2d)), (q_2s), (q_3d), (not (q_3s)), (q_5), (not (q_5s)) }</text>
</g>
<!-- 2&#45;&gt;3 -->
<g id="edge3" class="edge">
<title>2&#45;&gt;3</title>
<path fill="none" stroke="#44b82e" d="M1012,-840.8C1012,-829.16 1012,-813.55 1012,-800.24"/>
<polygon fill="#44b82e" stroke="#44b82e" points="1015.5,-800.18 1012,-790.18 1008.5,-800.18 1015.5,-800.18"/>
<text text-anchor="middle" x="1055.5" y="-811.8" font-family="Times,serif" font-size="14.00" fill="#44b82e">o_sync_q_3s</text>
</g>
<!-- 4 -->
<g id="node5" class="node">
<title>4</title>
<ellipse fill="none" stroke="black" cx="1012" cy="-685" rx="901.44" ry="18"/>
<text text-anchor="middle" x="1012" y="-681.3" font-family="Times,serif" font-size="14.00">{ (not (clean)), (current_state_0 s0_a0), (not (current_state_0 s0_a1)), (not (empty)), (f_sync), (q_1), (not (q_1d)), (not (q_1s)), (q_4d), (q_2d), (not (q_2s)), (q_3d), (not (q_3s)), (q_5), (not (q_5s)) }</text>
</g>
<!-- 3&#45;&gt;4 -->
<g id="edge4" class="edge">
<title>3&#45;&gt;4</title>
<path fill="none" stroke="#55bab8" d="M1012,-753.8C1012,-742.16 1012,-726.55 1012,-713.24"/>
<polygon fill="#55bab8" stroke="#55bab8" points="1015.5,-713.18 1012,-703.18 1008.5,-713.18 1015.5,-713.18"/>
<text text-anchor="middle" x="1055.5" y="-724.8" font-family="Times,serif" font-size="14.00" fill="#55bab8">o_sync_q_2s</text>
</g>
<!-- 5 -->
<g id="node6" class="node">
<title>5</title>
<ellipse fill="none" stroke="black" cx="1012" cy="-598" rx="906.84" ry="18"/>
<text text-anchor="middle" x="1012" y="-594.3" font-family="Times,serif" font-size="14.00">{ (not (clean)), (current_state_0 s0_a0), (not (current_state_0 s0_a1)), (not (empty)), (f_world), (q_1), (not (q_1d)), (not (q_1s)), (q_4d), (q_2d), (not (q_2s)), (q_3d), (not (q_3s)), (q_5), (not (q_5s)) }</text>
</g>
<!-- 4&#45;&gt;5 -->
<g id="edge5" class="edge">
<title>4&#45;&gt;5</title>
<path fill="none" stroke="#d35cd3" d="M1012,-666.8C1012,-655.16 1012,-639.55 1012,-626.24"/>
<polygon fill="#d35cd3" stroke="#d35cd3" points="1015.5,-626.18 1012,-616.18 1008.5,-626.18 1015.5,-626.18"/>
<text text-anchor="middle" x="1040" y="-637.8" font-family="Times,serif" font-size="14.00" fill="#d35cd3">o_world</text>
</g>
<!-- 6 -->
<g id="node7" class="node">
<title>6</title>
<ellipse fill="none" stroke="black" cx="923" cy="-511" rx="876.54" ry="18"/>
<text text-anchor="middle" x="923" y="-507.3" font-family="Times,serif" font-size="14.00">{ (clean), (current_state_0 s0_a0), (not (current_state_0 s0_a1)), (not (empty)), (f_copy), (q_1), (not (q_1d)), (not (q_1s)), (q_4d), (q_2d), (not (q_2s)), (q_3d), (not (q_3s)), (q_5), (not (q_5s)) }</text>
</g>
<!-- 5&#45;&gt;6 -->
<g id="edge6" class="edge">
<title>5&#45;&gt;6</title>
<path fill="none" stroke="#a58678" d="M993.99,-579.8C980.84,-567.24 962.84,-550.05 948.26,-536.12"/>
<polygon fill="#a58678" stroke="#a58678" points="950.63,-533.55 940.98,-529.18 945.8,-538.61 950.63,-533.55"/>
<text text-anchor="middle" x="1012" y="-550.8" font-family="Times,serif" font-size="14.00" fill="#a58678">clean_0_a0</text>
</g>
<!-- 7 -->
<g id="node8" class="node">
<title>7</title>
<ellipse fill="none" stroke="black" cx="2695" cy="-511" rx="876.54" ry="18"/>
<text text-anchor="middle" x="2695" y="-507.3" font-family="Times,serif" font-size="14.00">{ (clean), (not (current_state_0 s0_a0)), (current_state_0 s0_a1), (not (empty)), (f_copy), (q_1), (not (q_1d)), (not (q_1s)), (q_4d), (q_2d), (not (q_2s)), (q_3d), (not (q_3s)), (q_5), (not (q_5s)) }</text>
</g>
<!-- 5&#45;&gt;7 -->
<g id="edge7" class="edge">
<title>5&#45;&gt;7</title>
<path fill="none" stroke="#a58678" d="M1326.59,-581.11C1624.68,-566.06 2070.38,-543.55 2371.4,-528.34"/>
<polygon fill="#a58678" stroke="#a58678" points="2371.79,-531.83 2381.6,-527.83 2371.44,-524.84 2371.79,-531.83"/>
<text text-anchor="middle" x="1994" y="-550.8" font-family="Times,serif" font-size="14.00" fill="#a58678">clean_0_a0</text>
</g>
<!-- 8 -->
<g id="node9" class="node">
<title>8</title>
<ellipse fill="none" stroke="black" cx="923" cy="-424" rx="876.54" ry="18"/>
<text text-anchor="middle" x="923" y="-420.3" font-family="Times,serif" font-size="14.00">{ (clean), (current_state_0 s0_a0), (not (current_state_0 s0_a1)), (not (empty)), (f_sync), (not (q_1)), (not (q_1d)), (q_1s), (q_4d), (q_2d), (not (q_2s)), (q_3d), (not (q_3s)), (not (q_5)), (q_5s) }</text>
</g>
<!-- 6&#45;&gt;8 -->
<g id="edge8" class="edge">
<title>6&#45;&gt;8</title>
<path fill="none" stroke="#5a5663" d="M923,-492.8C923,-481.16 923,-465.55 923,-452.24"/>
<polygon fill="#5a5663" stroke="#5a5663" points="926.5,-452.18 923,-442.18 919.5,-452.18 926.5,-452.18"/>
<text text-anchor="middle" x="947.5" y="-463.8" font-family="Times,serif" font-size="14.00" fill="#5a5663">o_copy</text>
</g>
<!-- 9 -->
<g id="node10" class="node">
<title>9</title>
<ellipse fill="none" stroke="black" cx="2695" cy="-424" rx="876.54" ry="18"/>
<text text-anchor="middle" x="2695" y="-420.3" font-family="Times,serif" font-size="14.00">{ (clean), (not (current_state_0 s0_a0)), (current_state_0 s0_a1), (not (empty)), (f_sync), (not (q_1)), (not (q_1d)), (q_1s), (q_4d), (q_2d), (not (q_2s)), (q_3d), (not (q_3s)), (not (q_5)), (q_5s) }</text>
</g>
<!-- 7&#45;&gt;9 -->
<g id="edge9" class="edge">
<title>7&#45;&gt;9</title>
<path fill="none" stroke="#93923e" d="M2695,-492.8C2695,-481.16 2695,-465.55 2695,-452.24"/>
<polygon fill="#93923e" stroke="#93923e" points="2698.5,-452.18 2695,-442.18 2691.5,-452.18 2698.5,-452.18"/>
<text text-anchor="middle" x="2719.5" y="-463.8" font-family="Times,serif" font-size="14.00" fill="#93923e">o_copy</text>
</g>
<!-- 10 -->
<g id="node11" class="node">
<title>10</title>
<ellipse fill="none" stroke="black" cx="923" cy="-316" rx="876.54" ry="18"/>
<text text-anchor="middle" x="923" y="-312.3" font-family="Times,serif" font-size="14.00">{ (clean), (current_state_0 s0_a0), (not (current_state_0 s0_a1)), (not (empty)), (f_sync), (not (q_1)), (q_1d), (not (q_1s)), (q_4d), (q_2d), (not (q_2s)), (q_3d), (not (q_3s)), (not (q_5)), (q_5s) }</text>
</g>
<!-- 8&#45;&gt;10 -->
<g id="edge10" class="edge">
<title>8&#45;&gt;10</title>
<path fill="none" stroke="#7d2682" d="M923,-405.97C923,-389.38 923,-363.88 923,-344.43"/>
<polygon fill="#7d2682" stroke="#7d2682" points="926.5,-344.34 923,-334.34 919.5,-344.34 926.5,-344.34"/>
<text text-anchor="middle" x="966.5" y="-376.8" font-family="Times,serif" font-size="14.00" fill="#7d2682">o_sync_q_1s</text>
</g>
<!-- 11 -->
<g id="node12" class="node">
<title>11</title>
<ellipse fill="none" stroke="black" cx="2695" cy="-316" rx="876.54" ry="18"/>
<text text-anchor="middle" x="2695" y="-312.3" font-family="Times,serif" font-size="14.00">{ (clean), (not (current_state_0 s0_a0)), (current_state_0 s0_a1), (not (empty)), (f_sync), (not (q_1)), (q_1d), (not (q_1s)), (q_4d), (q_2d), (not (q_2s)), (q_3d), (not (q_3s)), (not (q_5)), (q_5s) }</text>
</g>
<!-- 9&#45;&gt;11 -->
<g id="edge11" class="edge">
<title>9&#45;&gt;11</title>
<path fill="none" stroke="#68cae9" d="M2695,-405.97C2695,-389.38 2695,-363.88 2695,-344.43"/>
<polygon fill="#68cae9" stroke="#68cae9" points="2698.5,-344.34 2695,-334.34 2691.5,-344.34 2698.5,-344.34"/>
<text text-anchor="middle" x="2738.5" y="-376.8" font-family="Times,serif" font-size="14.00" fill="#68cae9">o_sync_q_1s</text>
</g>
<!-- 12 -->
<g id="node13" class="node">
<title>12</title>
<ellipse fill="none" stroke="black" cx="2695" cy="-229" rx="901.44" ry="18"/>
<text text-anchor="middle" x="2695" y="-225.3" font-family="Times,serif" font-size="14.00">{ (clean), (not (current_state_0 s0_a0)), (current_state_0 s0_a1), (not (empty)), (f_sync), (not (q_1)), (q_1d), (not (q_1s)), (q_4d), (q_2d), (not (q_2s)), (q_3d), (not (q_3s)), (not (q_5)), (not (q_5s)) }</text>
</g>
<!-- 11&#45;&gt;12 -->
<g id="edge12" class="edge">
<title>11&#45;&gt;12</title>
<path fill="none" stroke="#9b6912" d="M2695,-297.8C2695,-286.16 2695,-270.55 2695,-257.24"/>
<polygon fill="#9b6912" stroke="#9b6912" points="2698.5,-257.18 2695,-247.18 2691.5,-257.18 2698.5,-257.18"/>
<text text-anchor="middle" x="2738.5" y="-268.8" font-family="Times,serif" font-size="14.00" fill="#9b6912">o_sync_q_5s</text>
</g>
<!-- 13 -->
<g id="node14" class="node">
<title>13</title>
<ellipse fill="none" stroke="black" cx="2695" cy="-142" rx="906.84" ry="18"/>
<text text-anchor="middle" x="2695" y="-138.3" font-family="Times,serif" font-size="14.00">{ (clean), (not (current_state_0 s0_a0)), (current_state_0 s0_a1), (not (empty)), (f_world), (not (q_1)), (q_1d), (not (q_1s)), (q_4d), (q_2d), (not (q_2s)), (q_3d), (not (q_3s)), (not (q_5)), (not (q_5s)) }</text>
</g>
<!-- 12&#45;&gt;13 -->
<g id="edge13" class="edge">
<title>12&#45;&gt;13</title>
<path fill="none" stroke="#caa01c" d="M2695,-210.8C2695,-199.16 2695,-183.55 2695,-170.24"/>
<polygon fill="#caa01c" stroke="#caa01c" points="2698.5,-170.18 2695,-160.18 2691.5,-170.18 2698.5,-170.18"/>
<text text-anchor="middle" x="2723" y="-181.8" font-family="Times,serif" font-size="14.00" fill="#caa01c">o_world</text>
</g>
<!-- 14 -->
<g id="node15" class="node">
<title>14</title>
<ellipse fill="none" stroke="black" cx="2695" cy="-34" rx="902.24" ry="18"/>
<text text-anchor="middle" x="2695" y="-30.3" font-family="Times,serif" font-size="14.00">{ (not (clean)), (current_state_0 s0_a0), (not (current_state_0 s0_a1)), (empty), (f_copy), (not (q_1)), (q_1d), (not (q_1s)), (q_4d), (q_2d), (not (q_2s)), (q_3d), (not (q_3s)), (not (q_5)), (not (q_5s)) }</text>
</g>
<!-- 13&#45;&gt;14 -->
<g id="edge14" class="edge">
<title>13&#45;&gt;14</title>
<path fill="none" stroke="#643071" d="M2695,-123.97C2695,-107.38 2695,-81.88 2695,-62.43"/>
<polygon fill="#643071" stroke="#643071" points="2698.5,-62.34 2695,-52.34 2691.5,-62.34 2698.5,-62.34"/>
<text text-anchor="middle" x="2737.5" y="-94.8" font-family="Times,serif" font-size="14.00" fill="#643071">empty_0_a1</text>
</g>
</g>
</svg>
