<?xml version="1.0" encoding="UTF-8" standalone="no"?>
<!DOCTYPE svg PUBLIC "-//W3C//DTD SVG 1.1//EN"
 "http://www.w3.org/Graphics/SVG/1.1/DTD/svg11.dtd">
<!-- Generated by graphviz version 2.43.0 (0)
 -->
<!-- Title: G Pages: 1 -->
<svg width="4670pt" height="1620pt"
 viewBox="0.00 0.00 4669.59 1620.00" xmlns="http://www.w3.org/2000/svg" xmlns:xlink="http://www.w3.org/1999/xlink">
<g id="graph0" class="graph" transform="scale(1 1) rotate(0) translate(4 1616)">
<title>G</title>
<polygon fill="white" stroke="transparent" points="-4,4 -4,-1616 4665.59,-1616 4665.59,4 -4,4"/>
<g id="clust1" class="cluster">
<title>cluster_goal_25</title>
<polygon fill="palegreen" stroke="palegreen" points="2356.8,-116 2356.8,-191 4644.8,-191 4644.8,-116 2356.8,-116"/>
<text text-anchor="middle" x="3500.8" y="-175.8" font-family="Times,serif" font-size="14.00">GOAL</text>
</g>
<g id="clust2" class="cluster">
<title>cluster_goal_26</title>
<polygon fill="palegreen" stroke="palegreen" points="21.8,-8 21.8,-83 2299.8,-83 2299.8,-8 21.8,-8"/>
<text text-anchor="middle" x="1160.8" y="-67.8" font-family="Times,serif" font-size="14.00">GOAL</text>
</g>
<g id="clust3" class="cluster">
<title>cluster_init</title>
<polygon fill="lightblue" stroke="lightblue" points="1268.8,-1529 1268.8,-1604 3458.8,-1604 3458.8,-1529 1268.8,-1529"/>
<text text-anchor="middle" x="2363.8" y="-1588.8" font-family="Times,serif" font-size="14.00">INIT</text>
</g>
<!-- 0 -->
<g id="node1" class="node">
<title>0</title>
<ellipse fill="none" stroke="black" cx="2363.8" cy="-1555" rx="1086.91" ry="18"/>
<text text-anchor="middle" x="2363.8" y="-1551.3" font-family="Times,serif" font-size="14.00">{ (not (clean)), (current_state_0 s0_a0), (not (current_state_0 s0_a1)), (not (empty)), (f_copy), (not (f_goal)), (f_ok), (not (f_sync)), (q_1), (not (q_2)), (not (q_2s)), (not (q_3)), (not (q_3s)), (not (q_4)), (not (q_4s)), (not (q_5)), (not (q_5s)) }</text>
</g>
<!-- 1 -->
<g id="node2" class="node">
<title>1</title>
<ellipse fill="none" stroke="black" cx="2363.8" cy="-1468" rx="1057.41" ry="18"/>
<text text-anchor="middle" x="2363.8" y="-1464.3" font-family="Times,serif" font-size="14.00">{ (not (clean)), (current_state_0 s0_a0), (not (current_state_0 s0_a1)), (not (empty)), (q_1t), (not (f_goal)), (f_ok), (f_sync), (q_1s), (not (q_2)), (not (q_2s)), (not (q_3)), (not (q_3s)), (not (q_4)), (not (q_4s)), (not (q_5)), (not (q_5s)) }</text>
</g>
<!-- 0&#45;&gt;1 -->
<g id="edge1" class="edge">
<title>0&#45;&gt;1</title>
<path fill="none" stroke="#92adc1" d="M2363.8,-1536.8C2363.8,-1525.16 2363.8,-1509.55 2363.8,-1496.24"/>
<polygon fill="#92adc1" stroke="#92adc1" points="2367.3,-1496.18 2363.8,-1486.18 2360.3,-1496.18 2367.3,-1496.18"/>
<text text-anchor="middle" x="2388.3" y="-1507.8" font-family="Times,serif" font-size="14.00" fill="#92adc1">o_copy</text>
</g>
<!-- 2 -->
<g id="node3" class="node">
<title>2</title>
<ellipse fill="none" stroke="black" cx="2363.8" cy="-1381" rx="1097.21" ry="18"/>
<text text-anchor="middle" x="2363.8" y="-1377.3" font-family="Times,serif" font-size="14.00">{ (not (clean)), (current_state_0 s0_a0), (not (current_state_0 s0_a1)), (not (empty)), (q_2t), (not (f_goal)), (f_ok), (f_sync), (not ((q_1))) (not ((q_1s))), (not (q_2)), (q_2s), (not (q_3)), (q_3s), (not (q_4)), (not (q_4s)), (not (q_5)), (not (q_5s)) }</text>
</g>
<!-- 1&#45;&gt;2 -->
<g id="edge2" class="edge">
<title>1&#45;&gt;2</title>
<path fill="none" stroke="#6f9bc7" d="M2363.8,-1449.8C2363.8,-1438.16 2363.8,-1422.55 2363.8,-1409.24"/>
<polygon fill="#6f9bc7" stroke="#6f9bc7" points="2367.3,-1409.18 2363.8,-1399.18 2360.3,-1409.18 2367.3,-1409.18"/>
<text text-anchor="middle" x="2407.3" y="-1420.8" font-family="Times,serif" font-size="14.00" fill="#6f9bc7">o_sync_q_1s</text>
</g>
<!-- 3 -->
<g id="node4" class="node">
<title>3</title>
<ellipse fill="none" stroke="black" cx="2363.8" cy="-1294" rx="1071.51" ry="18"/>
<text text-anchor="middle" x="2363.8" y="-1290.3" font-family="Times,serif" font-size="14.00">{ (not (clean)), (current_state_0 s0_a0), (not (current_state_0 s0_a1)), (not (empty)), (q_3t), (not (f_goal)), (f_ok), (f_sync), (not ((q_1))) (not ((q_1s))), (not (q_2)), (not (q_2s)), (not (q_3)), (q_3s), (q_4), (not (q_4s)), (q_5), (not (q_5s)) }</text>
</g>
<!-- 2&#45;&gt;3 -->
<g id="edge3" class="edge">
<title>2&#45;&gt;3</title>
<path fill="none" stroke="#1601c4" d="M2363.8,-1362.8C2363.8,-1351.16 2363.8,-1335.55 2363.8,-1322.24"/>
<polygon fill="#1601c4" stroke="#1601c4" points="2367.3,-1322.18 2363.8,-1312.18 2360.3,-1322.18 2367.3,-1322.18"/>
<text text-anchor="middle" x="2407.3" y="-1333.8" font-family="Times,serif" font-size="14.00" fill="#1601c4">o_sync_q_2s</text>
</g>
<!-- 4 -->
<g id="node5" class="node">
<title>4</title>
<ellipse fill="none" stroke="black" cx="2363.8" cy="-1207" rx="1097.21" ry="18"/>
<text text-anchor="middle" x="2363.8" y="-1203.3" font-family="Times,serif" font-size="14.00">{ (not (clean)), (current_state_0 s0_a0), (not (current_state_0 s0_a1)), (not (empty)), (q_4t), (not (f_goal)), (f_ok), (f_sync), (not ((q_1))) (not ((q_1s))), (not (q_2)), (not (q_2s)), (not (q_3)), (not (q_3s)), (q_4), (not (q_4s)), (q_5), (not (q_5s)) }</text>
</g>
<!-- 3&#45;&gt;4 -->
<g id="edge4" class="edge">
<title>3&#45;&gt;4</title>
<path fill="none" stroke="#427ac9" d="M2363.8,-1275.8C2363.8,-1264.16 2363.8,-1248.55 2363.8,-1235.24"/>
<polygon fill="#427ac9" stroke="#427ac9" points="2367.3,-1235.18 2363.8,-1225.18 2360.3,-1235.18 2367.3,-1235.18"/>
<text text-anchor="middle" x="2407.3" y="-1246.8" font-family="Times,serif" font-size="14.00" fill="#427ac9">o_sync_q_3s</text>
</g>
<!-- 5 -->
<g id="node6" class="node">
<title>5</title>
<ellipse fill="none" stroke="black" cx="2363.8" cy="-1120" rx="1097.21" ry="18"/>
<text text-anchor="middle" x="2363.8" y="-1116.3" font-family="Times,serif" font-size="14.00">{ (not (clean)), (current_state_0 s0_a0), (not (current_state_0 s0_a1)), (not (empty)), (q_5t), (not (f_goal)), (f_ok), (f_sync), (not ((q_1))) (not ((q_1s))), (not (q_2)), (not (q_2s)), (not (q_3)), (not (q_3s)), (q_4), (not (q_4s)), (q_5), (not (q_5s)) }</text>
</g>
<!-- 4&#45;&gt;5 -->
<g id="edge5" class="edge">
<title>4&#45;&gt;5</title>
<path fill="none" stroke="#244694" d="M2363.8,-1188.8C2363.8,-1177.16 2363.8,-1161.55 2363.8,-1148.24"/>
<polygon fill="#244694" stroke="#244694" points="2367.3,-1148.18 2363.8,-1138.18 2360.3,-1148.18 2367.3,-1148.18"/>
<text text-anchor="middle" x="2407.3" y="-1159.8" font-family="Times,serif" font-size="14.00" fill="#244694">o_sync_q_4s</text>
</g>
<!-- 6 -->
<g id="node7" class="node">
<title>6</title>
<ellipse fill="none" stroke="black" cx="2363.8" cy="-1033" rx="1097.21" ry="18"/>
<text text-anchor="middle" x="2363.8" y="-1029.3" font-family="Times,serif" font-size="14.00">{ (not (clean)), (current_state_0 s0_a0), (not (current_state_0 s0_a1)), (not (empty)), (q_6t), (not (f_goal)), (f_ok), (f_sync), (not ((q_1))) (not ((q_1s))), (not (q_2)), (not (q_2s)), (not (q_3)), (not (q_3s)), (q_4), (not (q_4s)), (q_5), (not (q_5s)) }</text>
</g>
<!-- 5&#45;&gt;6 -->
<g id="edge6" class="edge">
<title>5&#45;&gt;6</title>
<path fill="none" stroke="#bec310" d="M2363.8,-1101.8C2363.8,-1090.16 2363.8,-1074.55 2363.8,-1061.24"/>
<polygon fill="#bec310" stroke="#bec310" points="2367.3,-1061.18 2363.8,-1051.18 2360.3,-1061.18 2367.3,-1061.18"/>
<text text-anchor="middle" x="2407.3" y="-1072.8" font-family="Times,serif" font-size="14.00" fill="#bec310">o_sync_q_5s</text>
</g>
<!-- 7 -->
<g id="node8" class="node">
<title>7</title>
<ellipse fill="none" stroke="black" cx="2363.8" cy="-946" rx="1136.2" ry="18"/>
<text text-anchor="middle" x="2363.8" y="-942.3" font-family="Times,serif" font-size="14.00">{ (not (clean)), (current_state_0 s0_a0), (not (current_state_0 s0_a1)), (not (empty)), (f_world), (not (f_goal)), (f_ok), (not (f_sync)), (not ((q_1))) (not ((q_1s))), (not (q_2)), (not (q_2s)), (not (q_3)), (not (q_3s)), (q_4), (not (q_4s)), (q_5), (not (q_5s)) }</text>
</g>
<!-- 6&#45;&gt;7 -->
<g id="edge7" class="edge">
<title>6&#45;&gt;7</title>
<path fill="none" stroke="#6b1245" d="M2363.8,-1014.8C2363.8,-1003.16 2363.8,-987.55 2363.8,-974.24"/>
<polygon fill="#6b1245" stroke="#6b1245" points="2367.3,-974.18 2363.8,-964.18 2360.3,-974.18 2367.3,-974.18"/>
<text text-anchor="middle" x="2407.3" y="-985.8" font-family="Times,serif" font-size="14.00" fill="#6b1245">o_sync_q_6s</text>
</g>
<!-- 8 -->
<g id="node9" class="node">
<title>8</title>
<ellipse fill="none" stroke="black" cx="1249.8" cy="-859" rx="1106.4" ry="18"/>
<text text-anchor="middle" x="1249.8" y="-855.3" font-family="Times,serif" font-size="14.00">{ (clean), (not (current_state_0 s0_a0)), (current_state_0 s0_a1), (not (empty)), (f_copy), (not (f_goal)), (f_ok), (not (f_sync)), (not ((q_1))) (not ((q_1s))), (not (q_2)), (not (q_2s)), (not (q_3)), (not (q_3s)), (q_4), (not (q_4s)), (q_5), (not (q_5s)) }</text>
</g>
<!-- 7&#45;&gt;8 -->
<g id="edge8" class="edge">
<title>7&#45;&gt;8</title>
<path fill="none" stroke="#6d254a" d="M2145.37,-928.33C1952.95,-913.65 1673.68,-892.34 1478.3,-877.44"/>
<polygon fill="#6d254a" stroke="#6d254a" points="1478.43,-873.93 1468.19,-876.66 1477.89,-880.91 1478.43,-873.93"/>
<text text-anchor="middle" x="1911.8" y="-898.8" font-family="Times,serif" font-size="14.00" fill="#6d254a">clean_0_a0</text>
</g>
<!-- 9 -->
<g id="node10" class="node">
<title>9</title>
<ellipse fill="none" stroke="black" cx="3479.8" cy="-859" rx="1106.4" ry="18"/>
<text text-anchor="middle" x="3479.8" y="-855.3" font-family="Times,serif" font-size="14.00">{ (clean), (current_state_0 s0_a0), (not (current_state_0 s0_a1)), (not (empty)), (f_copy), (not (f_goal)), (f_ok), (not (f_sync)), (not ((q_1))) (not ((q_1s))), (not (q_2)), (not (q_2s)), (not (q_3)), (not (q_3s)), (q_4), (not (q_4s)), (q_5), (not (q_5s)) }</text>
</g>
<!-- 7&#45;&gt;9 -->
<g id="edge9" class="edge">
<title>7&#45;&gt;9</title>
<path fill="none" stroke="#6d254a" d="M2582.62,-928.33C2775.38,-913.65 3055.16,-892.34 3250.88,-877.44"/>
<polygon fill="#6d254a" stroke="#6d254a" points="3251.31,-880.91 3261.01,-876.66 3250.78,-873.93 3251.31,-880.91"/>
<text text-anchor="middle" x="3026.8" y="-898.8" font-family="Times,serif" font-size="14.00" fill="#6d254a">clean_0_a0</text>
</g>
<!-- 10 -->
<g id="node11" class="node">
<title>10</title>
<ellipse fill="none" stroke="black" cx="1249.8" cy="-772" rx="1071.51" ry="18"/>
<text text-anchor="middle" x="1249.8" y="-768.3" font-family="Times,serif" font-size="14.00">{ (clean), (not (current_state_0 s0_a0)), (current_state_0 s0_a1), (not (empty)), (q_1t), (not (f_goal)), (f_ok), (f_sync), (not ((q_1))) (not ((q_1s))), (not (q_2)), (not (q_2s)), (not (q_3)), (not (q_3s)), (not (q_4)), (q_4s), (not (q_5)), (q_5s) }</text>
</g>
<!-- 8&#45;&gt;10 -->
<g id="edge10" class="edge">
<title>8&#45;&gt;10</title>
<path fill="none" stroke="#124963" d="M1249.8,-840.8C1249.8,-829.16 1249.8,-813.55 1249.8,-800.24"/>
<polygon fill="#124963" stroke="#124963" points="1253.3,-800.18 1249.8,-790.18 1246.3,-800.18 1253.3,-800.18"/>
<text text-anchor="middle" x="1274.3" y="-811.8" font-family="Times,serif" font-size="14.00" fill="#124963">o_copy</text>
</g>
<!-- 11 -->
<g id="node12" class="node">
<title>11</title>
<ellipse fill="none" stroke="black" cx="3484.8" cy="-772" rx="1071.51" ry="18"/>
<text text-anchor="middle" x="3484.8" y="-768.3" font-family="Times,serif" font-size="14.00">{ (clean), (current_state_0 s0_a0), (not (current_state_0 s0_a1)), (not (empty)), (q_1t), (not (f_goal)), (f_ok), (f_sync), (not ((q_1))) (not ((q_1s))), (not (q_2)), (not (q_2s)), (not (q_3)), (not (q_3s)), (not (q_4)), (q_4s), (not (q_5)), (q_5s) }</text>
</g>
<!-- 9&#45;&gt;11 -->
<g id="edge11" class="edge">
<title>9&#45;&gt;11</title>
<path fill="none" stroke="#a8224b" d="M3480.81,-840.8C3481.49,-829.16 3482.41,-813.55 3483.19,-800.24"/>
<polygon fill="#a8224b" stroke="#a8224b" points="3486.69,-800.36 3483.79,-790.18 3479.71,-799.95 3486.69,-800.36"/>
<text text-anchor="middle" x="3506.3" y="-811.8" font-family="Times,serif" font-size="14.00" fill="#a8224b">o_copy</text>
</g>
<!-- 12 -->
<g id="node13" class="node">
<title>12</title>
<ellipse fill="none" stroke="black" cx="1249.8" cy="-685" rx="1071.51" ry="18"/>
<text text-anchor="middle" x="1249.8" y="-681.3" font-family="Times,serif" font-size="14.00">{ (clean), (not (current_state_0 s0_a0)), (current_state_0 s0_a1), (not (empty)), (q_2t), (not (f_goal)), (f_ok), (f_sync), (not ((q_1))) (not ((q_1s))), (not (q_2)), (not (q_2s)), (not (q_3)), (not (q_3s)), (not (q_4)), (q_4s), (not (q_5)), (q_5s) }</text>
</g>
<!-- 10&#45;&gt;12 -->
<g id="edge12" class="edge">
<title>10&#45;&gt;12</title>
<path fill="none" stroke="#57ba69" d="M1249.8,-753.8C1249.8,-742.16 1249.8,-726.55 1249.8,-713.24"/>
<polygon fill="#57ba69" stroke="#57ba69" points="1253.3,-713.18 1249.8,-703.18 1246.3,-713.18 1253.3,-713.18"/>
<text text-anchor="middle" x="1293.3" y="-724.8" font-family="Times,serif" font-size="14.00" fill="#57ba69">o_sync_q_1s</text>
</g>
<!-- 13 -->
<g id="node14" class="node">
<title>13</title>
<ellipse fill="none" stroke="black" cx="3487.8" cy="-685" rx="1071.51" ry="18"/>
<text text-anchor="middle" x="3487.8" y="-681.3" font-family="Times,serif" font-size="14.00">{ (clean), (current_state_0 s0_a0), (not (current_state_0 s0_a1)), (not (empty)), (q_2t), (not (f_goal)), (f_ok), (f_sync), (not ((q_1))) (not ((q_1s))), (not (q_2)), (not (q_2s)), (not (q_3)), (not (q_3s)), (not (q_4)), (q_4s), (not (q_5)), (q_5s) }</text>
</g>
<!-- 11&#45;&gt;13 -->
<g id="edge13" class="edge">
<title>11&#45;&gt;13</title>
<path fill="none" stroke="#a53162" d="M3485.4,-753.8C3485.81,-742.16 3486.37,-726.55 3486.84,-713.24"/>
<polygon fill="#a53162" stroke="#a53162" points="3490.34,-713.29 3487.19,-703.18 3483.34,-713.05 3490.34,-713.29"/>
<text text-anchor="middle" x="3529.3" y="-724.8" font-family="Times,serif" font-size="14.00" fill="#a53162">o_sync_q_1s</text>
</g>
<!-- 14 -->
<g id="node15" class="node">
<title>14</title>
<ellipse fill="none" stroke="black" cx="1249.8" cy="-598" rx="1071.51" ry="18"/>
<text text-anchor="middle" x="1249.8" y="-594.3" font-family="Times,serif" font-size="14.00">{ (clean), (not (current_state_0 s0_a0)), (current_state_0 s0_a1), (not (empty)), (q_3t), (not (f_goal)), (f_ok), (f_sync), (not ((q_1))) (not ((q_1s))), (not (q_2)), (not (q_2s)), (not (q_3)), (not (q_3s)), (not (q_4)), (q_4s), (not (q_5)), (q_5s) }</text>
</g>
<!-- 12&#45;&gt;14 -->
<g id="edge14" class="edge">
<title>12&#45;&gt;14</title>
<path fill="none" stroke="#b1363e" d="M1249.8,-666.8C1249.8,-655.16 1249.8,-639.55 1249.8,-626.24"/>
<polygon fill="#b1363e" stroke="#b1363e" points="1253.3,-626.18 1249.8,-616.18 1246.3,-626.18 1253.3,-626.18"/>
<text text-anchor="middle" x="1293.3" y="-637.8" font-family="Times,serif" font-size="14.00" fill="#b1363e">o_sync_q_2s</text>
</g>
<!-- 15 -->
<g id="node16" class="node">
<title>15</title>
<ellipse fill="none" stroke="black" cx="3488.8" cy="-598" rx="1071.51" ry="18"/>
<text text-anchor="middle" x="3488.8" y="-594.3" font-family="Times,serif" font-size="14.00">{ (clean), (current_state_0 s0_a0), (not (current_state_0 s0_a1)), (not (empty)), (q_3t), (not (f_goal)), (f_ok), (f_sync), (not ((q_1))) (not ((q_1s))), (not (q_2)), (not (q_2s)), (not (q_3)), (not (q_3s)), (not (q_4)), (q_4s), (not (q_5)), (q_5s) }</text>
</g>
<!-- 13&#45;&gt;15 -->
<g id="edge15" class="edge">
<title>13&#45;&gt;15</title>
<path fill="none" stroke="#7c20e7" d="M3488,-666.8C3488.14,-655.16 3488.32,-639.55 3488.48,-626.24"/>
<polygon fill="#7c20e7" stroke="#7c20e7" points="3491.98,-626.22 3488.59,-616.18 3484.98,-626.13 3491.98,-626.22"/>
<text text-anchor="middle" x="3531.3" y="-637.8" font-family="Times,serif" font-size="14.00" fill="#7c20e7">o_sync_q_2s</text>
</g>
<!-- 16 -->
<g id="node17" class="node">
<title>16</title>
<ellipse fill="none" stroke="black" cx="1248.8" cy="-511" rx="1071.51" ry="18"/>
<text text-anchor="middle" x="1248.8" y="-507.3" font-family="Times,serif" font-size="14.00">{ (clean), (not (current_state_0 s0_a0)), (current_state_0 s0_a1), (not (empty)), (q_4t), (not (f_goal)), (f_ok), (f_sync), (not ((q_1))) (not ((q_1s))), (not (q_2)), (not (q_2s)), (not (q_3)), (not (q_3s)), (not (q_4)), (q_4s), (not (q_5)), (q_5s) }</text>
</g>
<!-- 14&#45;&gt;16 -->
<g id="edge16" class="edge">
<title>14&#45;&gt;16</title>
<path fill="none" stroke="#e49aa3" d="M1249.59,-579.8C1249.46,-568.16 1249.27,-552.55 1249.12,-539.24"/>
<polygon fill="#e49aa3" stroke="#e49aa3" points="1252.62,-539.13 1249,-529.18 1245.62,-539.22 1252.62,-539.13"/>
<text text-anchor="middle" x="1292.3" y="-550.8" font-family="Times,serif" font-size="14.00" fill="#e49aa3">o_sync_q_3s</text>
</g>
<!-- 17 -->
<g id="node18" class="node">
<title>17</title>
<ellipse fill="none" stroke="black" cx="3489.8" cy="-511" rx="1071.51" ry="18"/>
<text text-anchor="middle" x="3489.8" y="-507.3" font-family="Times,serif" font-size="14.00">{ (clean), (current_state_0 s0_a0), (not (current_state_0 s0_a1)), (not (empty)), (q_4t), (not (f_goal)), (f_ok), (f_sync), (not ((q_1))) (not ((q_1s))), (not (q_2)), (not (q_2s)), (not (q_3)), (not (q_3s)), (not (q_4)), (q_4s), (not (q_5)), (q_5s) }</text>
</g>
<!-- 15&#45;&gt;17 -->
<g id="edge17" class="edge">
<title>15&#45;&gt;17</title>
<path fill="none" stroke="#0cc7fa" d="M3489,-579.8C3489.14,-568.16 3489.32,-552.55 3489.48,-539.24"/>
<polygon fill="#0cc7fa" stroke="#0cc7fa" points="3492.98,-539.22 3489.59,-529.18 3485.98,-539.13 3492.98,-539.22"/>
<text text-anchor="middle" x="3532.3" y="-550.8" font-family="Times,serif" font-size="14.00" fill="#0cc7fa">o_sync_q_3s</text>
</g>
<!-- 18 -->
<g id="node19" class="node">
<title>18</title>
<ellipse fill="none" stroke="black" cx="1242.8" cy="-424" rx="1097.21" ry="18"/>
<text text-anchor="middle" x="1242.8" y="-420.3" font-family="Times,serif" font-size="14.00">{ (clean), (not (current_state_0 s0_a0)), (current_state_0 s0_a1), (not (empty)), (q_5t), (not (f_goal)), (f_ok), (f_sync), (not ((q_1))) (not ((q_1s))), (not (q_2)), (not (q_2s)), (not (q_3)), (not (q_3s)), (not (q_4)), (not (q_4s)), (not (q_5)), (q_5s) }</text>
</g>
<!-- 16&#45;&gt;18 -->
<g id="edge18" class="edge">
<title>16&#45;&gt;18</title>
<path fill="none" stroke="#451647" d="M1247.58,-492.8C1246.76,-481.16 1245.66,-465.55 1244.72,-452.24"/>
<polygon fill="#451647" stroke="#451647" points="1248.2,-451.9 1244.01,-442.18 1241.22,-452.4 1248.2,-451.9"/>
<text text-anchor="middle" x="1289.3" y="-463.8" font-family="Times,serif" font-size="14.00" fill="#451647">o_sync_q_4s</text>
</g>
<!-- 19 -->
<g id="node20" class="node">
<title>19</title>
<ellipse fill="none" stroke="black" cx="3489.8" cy="-424" rx="1097.21" ry="18"/>
<text text-anchor="middle" x="3489.8" y="-420.3" font-family="Times,serif" font-size="14.00">{ (clean), (current_state_0 s0_a0), (not (current_state_0 s0_a1)), (not (empty)), (q_5t), (not (f_goal)), (f_ok), (f_sync), (not ((q_1))) (not ((q_1s))), (not (q_2)), (not (q_2s)), (not (q_3)), (not (q_3s)), (not (q_4)), (not (q_4s)), (not (q_5)), (q_5s) }</text>
</g>
<!-- 17&#45;&gt;19 -->
<g id="edge19" class="edge">
<title>17&#45;&gt;19</title>
<path fill="none" stroke="#4ee84e" d="M3489.8,-492.8C3489.8,-481.16 3489.8,-465.55 3489.8,-452.24"/>
<polygon fill="#4ee84e" stroke="#4ee84e" points="3493.3,-452.18 3489.8,-442.18 3486.3,-452.18 3493.3,-452.18"/>
<text text-anchor="middle" x="3533.3" y="-463.8" font-family="Times,serif" font-size="14.00" fill="#4ee84e">o_sync_q_4s</text>
</g>
<!-- 20 -->
<g id="node21" class="node">
<title>20</title>
<ellipse fill="none" stroke="black" cx="1218.8" cy="-337" rx="1121.6" ry="18"/>
<text text-anchor="middle" x="1218.8" y="-333.3" font-family="Times,serif" font-size="14.00">{ (clean), (not (current_state_0 s0_a0)), (current_state_0 s0_a1), (not (empty)), (q_6t), (not (f_goal)), (f_ok), (f_sync), (not ((q_1))) (not ((q_1s))), (not (q_2)), (not (q_2s)), (not (q_3)), (not (q_3s)), (not (q_4)), (not (q_4s)), (not (q_5)), (not (q_5s)) }</text>
</g>
<!-- 18&#45;&gt;20 -->
<g id="edge20" class="edge">
<title>18&#45;&gt;20</title>
<path fill="none" stroke="#253ba6" d="M1237.94,-405.8C1234.62,-394.05 1230.16,-378.24 1226.38,-364.84"/>
<polygon fill="#253ba6" stroke="#253ba6" points="1229.73,-363.85 1223.65,-355.18 1223,-365.75 1229.73,-363.85"/>
<text text-anchor="middle" x="1275.3" y="-376.8" font-family="Times,serif" font-size="14.00" fill="#253ba6">o_sync_q_5s</text>
</g>
<!-- 21 -->
<g id="node22" class="node">
<title>21</title>
<ellipse fill="none" stroke="black" cx="3490.8" cy="-337" rx="1121.6" ry="18"/>
<text text-anchor="middle" x="3490.8" y="-333.3" font-family="Times,serif" font-size="14.00">{ (clean), (current_state_0 s0_a0), (not (current_state_0 s0_a1)), (not (empty)), (q_6t), (not (f_goal)), (f_ok), (f_sync), (not ((q_1))) (not ((q_1s))), (not (q_2)), (not (q_2s)), (not (q_3)), (not (q_3s)), (not (q_4)), (not (q_4s)), (not (q_5)), (not (q_5s)) }</text>
</g>
<!-- 19&#45;&gt;21 -->
<g id="edge21" class="edge">
<title>19&#45;&gt;21</title>
<path fill="none" stroke="#b7974d" d="M3490,-405.8C3490.14,-394.16 3490.32,-378.55 3490.48,-365.24"/>
<polygon fill="#b7974d" stroke="#b7974d" points="3493.98,-365.22 3490.59,-355.18 3486.98,-365.13 3493.98,-365.22"/>
<text text-anchor="middle" x="3533.3" y="-376.8" font-family="Times,serif" font-size="14.00" fill="#b7974d">o_sync_q_5s</text>
</g>
<!-- 22 -->
<g id="node23" class="node">
<title>22</title>
<ellipse fill="none" stroke="black" cx="1160.8" cy="-250" rx="1160.59" ry="18"/>
<text text-anchor="middle" x="1160.8" y="-246.3" font-family="Times,serif" font-size="14.00">{ (clean), (not (current_state_0 s0_a0)), (current_state_0 s0_a1), (not (empty)), (f_world), (not (f_goal)), (f_ok), (not (f_sync)), (not ((q_1))) (not ((q_1s))), (not (q_2)), (not (q_2s)), (not (q_3)), (not (q_3s)), (not (q_4)), (not (q_4s)), (not (q_5)), (not (q_5s)) }</text>
</g>
<!-- 20&#45;&gt;22 -->
<g id="edge22" class="edge">
<title>20&#45;&gt;22</title>
<path fill="none" stroke="#df3ea5" d="M1207.06,-318.8C1198.81,-306.7 1187.62,-290.3 1178.31,-276.67"/>
<polygon fill="#df3ea5" stroke="#df3ea5" points="1181.04,-274.46 1172.52,-268.18 1175.26,-278.41 1181.04,-274.46"/>
<text text-anchor="middle" x="1236.3" y="-289.8" font-family="Times,serif" font-size="14.00" fill="#df3ea5">o_sync_q_6s</text>
</g>
<!-- 23 -->
<g id="node24" class="node">
<title>23</title>
<ellipse fill="none" stroke="black" cx="3500.8" cy="-250" rx="1160.59" ry="18"/>
<text text-anchor="middle" x="3500.8" y="-246.3" font-family="Times,serif" font-size="14.00">{ (clean), (current_state_0 s0_a0), (not (current_state_0 s0_a1)), (not (empty)), (f_world), (not (f_goal)), (f_ok), (not (f_sync)), (not ((q_1))) (not ((q_1s))), (not (q_2)), (not (q_2s)), (not (q_3)), (not (q_3s)), (not (q_4)), (not (q_4s)), (not (q_5)), (not (q_5s)) }</text>
</g>
<!-- 21&#45;&gt;23 -->
<g id="edge23" class="edge">
<title>21&#45;&gt;23</title>
<path fill="none" stroke="#c9896f" d="M3492.82,-318.8C3494.19,-307.16 3496.03,-291.55 3497.59,-278.24"/>
<polygon fill="#c9896f" stroke="#c9896f" points="3501.08,-278.52 3498.78,-268.18 3494.13,-277.7 3501.08,-278.52"/>
<text text-anchor="middle" x="3539.3" y="-289.8" font-family="Times,serif" font-size="14.00" fill="#c9896f">o_sync_q_6s</text>
</g>
<!-- 24 -->
<g id="node25" class="node">
<title>24</title>
<ellipse fill="none" stroke="black" cx="1160.8" cy="-142" rx="1136.2" ry="18"/>
<text text-anchor="middle" x="1160.8" y="-138.3" font-family="Times,serif" font-size="14.00">{ (clean), (not (current_state_0 s0_a0)), (current_state_0 s0_a1), (not (empty)), (f_world), (f_goal), (f_ok), (not (f_sync)), (not ((q_1))) (not ((q_1s))), (not (q_2)), (not (q_2s)), (not (q_3)), (not (q_3s)), (not (q_4)), (not (q_4s)), (not (q_5)), (not (q_5s)) }</text>
</g>
<!-- 22&#45;&gt;24 -->
<g id="edge24" class="edge">
<title>22&#45;&gt;24</title>
<path fill="none" stroke="#237415" d="M1160.8,-231.97C1160.8,-215.38 1160.8,-189.88 1160.8,-170.43"/>
<polygon fill="#237415" stroke="#237415" points="1164.3,-170.34 1160.8,-160.34 1157.3,-170.34 1164.3,-170.34"/>
<text text-anchor="middle" x="1183.8" y="-202.8" font-family="Times,serif" font-size="14.00" fill="#237415">o_goal</text>
</g>
<!-- 25 -->
<g id="node26" class="node">
<title>25</title>
<ellipse fill="none" stroke="black" cx="3500.8" cy="-142" rx="1136.2" ry="18"/>
<text text-anchor="middle" x="3500.8" y="-138.3" font-family="Times,serif" font-size="14.00">{ (clean), (current_state_0 s0_a0), (not (current_state_0 s0_a1)), (not (empty)), (f_world), (f_goal), (f_ok), (not (f_sync)), (not ((q_1))) (not ((q_1s))), (not (q_2)), (not (q_2s)), (not (q_3)), (not (q_3s)), (not (q_4)), (not (q_4s)), (not (q_5)), (not (q_5s)) }</text>
</g>
<!-- 23&#45;&gt;25 -->
<g id="edge25" class="edge">
<title>23&#45;&gt;25</title>
<path fill="none" stroke="#f9722b" d="M3500.8,-231.97C3500.8,-215.38 3500.8,-189.88 3500.8,-170.43"/>
<polygon fill="#f9722b" stroke="#f9722b" points="3504.3,-170.34 3500.8,-160.34 3497.3,-170.34 3504.3,-170.34"/>
<text text-anchor="middle" x="3523.8" y="-202.8" font-family="Times,serif" font-size="14.00" fill="#f9722b">o_goal</text>
</g>
<!-- 26 -->
<g id="node27" class="node">
<title>26</title>
<ellipse fill="none" stroke="black" cx="1160.8" cy="-34" rx="1130.8" ry="18"/>
<text text-anchor="middle" x="1160.8" y="-30.3" font-family="Times,serif" font-size="14.00">{ (not (clean)), (current_state_0 s0_a0), (not (current_state_0 s0_a1)), (empty), (f_copy), (f_goal), (f_ok), (not (f_sync)), (not ((q_1))) (not ((q_1s))), (not (q_2)), (not (q_2s)), (not (q_3)), (not (q_3s)), (not (q_4)), (not (q_4s)), (not (q_5)), (not (q_5s)) }</text>
</g>
<!-- 24&#45;&gt;26 -->
<g id="edge26" class="edge">
<title>24&#45;&gt;26</title>
<path fill="none" stroke="#f062db" d="M1160.8,-123.97C1160.8,-107.38 1160.8,-81.88 1160.8,-62.43"/>
<polygon fill="#f062db" stroke="#f062db" points="1164.3,-62.34 1160.8,-52.34 1157.3,-62.34 1164.3,-62.34"/>
<text text-anchor="middle" x="1203.3" y="-94.8" font-family="Times,serif" font-size="14.00" fill="#f062db">empty_0_a1</text>
</g>
</g>
</svg>
