<?xml version="1.0" encoding="UTF-8" standalone="no"?>
<!DOCTYPE svg PUBLIC "-//W3C//DTD SVG 1.1//EN"
 "http://www.w3.org/Graphics/SVG/1.1/DTD/svg11.dtd">
<!-- Generated by graphviz version 2.43.0 (0)
 -->
<!-- Title: G Pages: 1 -->
<svg width="4885pt" height="1533pt"
 viewBox="0.00 0.00 4885.34 1533.00" xmlns="http://www.w3.org/2000/svg" xmlns:xlink="http://www.w3.org/1999/xlink">
<g id="graph0" class="graph" transform="scale(1 1) rotate(0) translate(4 1529)">
<title>G</title>
<polygon fill="white" stroke="transparent" points="-4,4 -4,-1529 4881.34,-1529 4881.34,4 -4,4"/>
<g id="clust1" class="cluster">
<title>cluster_goal_19</title>
<polygon fill="palegreen" stroke="palegreen" points="2494,-290 2494,-365 4852,-365 4852,-290 2494,-290"/>
<text text-anchor="middle" x="3673" y="-349.8" font-family="Times,serif" font-size="14.00">GOAL</text>
</g>
<g id="clust2" class="cluster">
<title>cluster_goal_22</title>
<polygon fill="palegreen" stroke="palegreen" points="8,-8 8,-83 2484,-83 2484,-8 8,-8"/>
<text text-anchor="middle" x="1246" y="-67.8" font-family="Times,serif" font-size="14.00">GOAL</text>
</g>
<g id="clust3" class="cluster">
<title>cluster_init</title>
<polygon fill="lightblue" stroke="lightblue" points="582,-1442 582,-1517 3118,-1517 3118,-1442 582,-1442"/>
<text text-anchor="middle" x="1850" y="-1501.8" font-family="Times,serif" font-size="14.00">INIT</text>
</g>
<!-- 0 -->
<g id="node1" class="node">
<title>0</title>
<ellipse fill="none" stroke="black" cx="1850" cy="-1468" rx="1259.68" ry="18"/>
<text text-anchor="middle" x="1850" y="-1464.3" font-family="Times,serif" font-size="14.00">{ (not (clean)), (current_state_0 s0_a0), (not (current_state_0 s0_a1)), (not (empty)), (f_copy), (f_ok), (not (f_sync)), (q_1), (not (q_1d)), (not (q_2)), (not (q_2d)), (not (q_2s)), (not (q_3)), (not (q_3d)), (not (q_3s)), (not (q_4)), (not (q_4d)), (not (q_4s)), (not (q_5)), (not (q_5s)) }</text>
</g>
<!-- 1 -->
<g id="node2" class="node">
<title>1</title>
<ellipse fill="none" stroke="black" cx="1850" cy="-1381" rx="1230.18" ry="18"/>
<text text-anchor="middle" x="1850" y="-1377.3" font-family="Times,serif" font-size="14.00">{ (not (clean)), (current_state_0 s0_a0), (not (current_state_0 s0_a1)), (not (empty)), (q_1t), (f_ok), (f_sync), (q_1s), (not (q_1d)), (not (q_2)), (not (q_2d)), (not (q_2s)), (not (q_3)), (not (q_3d)), (not (q_3s)), (not (q_4)), (not (q_4d)), (not (q_4s)), (not (q_5)), (not (q_5s)) }</text>
</g>
<!-- 0&#45;&gt;1 -->
<g id="edge1" class="edge">
<title>0&#45;&gt;1</title>
<path fill="none" stroke="#f13170" d="M1850,-1449.8C1850,-1438.16 1850,-1422.55 1850,-1409.24"/>
<polygon fill="#f13170" stroke="#f13170" points="1853.5,-1409.18 1850,-1399.18 1846.5,-1409.18 1853.5,-1409.18"/>
<text text-anchor="middle" x="1874.5" y="-1420.8" font-family="Times,serif" font-size="14.00" fill="#f13170">o_copy</text>
</g>
<!-- 2 -->
<g id="node3" class="node">
<title>2</title>
<ellipse fill="none" stroke="black" cx="1850" cy="-1294" rx="1245.08" ry="18"/>
<text text-anchor="middle" x="1850" y="-1290.3" font-family="Times,serif" font-size="14.00">{ (not (clean)), (current_state_0 s0_a0), (not (current_state_0 s0_a1)), (not (empty)), (q_2t), (f_ok), (f_sync), (not ((q_1))) (not ((q_1s))), (q_1d), (not (q_2)), (not (q_2d)), (q_2s), (not (q_3)), (not (q_3d)), (q_3s), (not (q_4)), (not (q_4d)), (not (q_4s)), (not (q_5)), (not (q_5s)) }</text>
</g>
<!-- 1&#45;&gt;2 -->
<g id="edge2" class="edge">
<title>1&#45;&gt;2</title>
<path fill="none" stroke="#6387c3" d="M1850,-1362.8C1850,-1351.16 1850,-1335.55 1850,-1322.24"/>
<polygon fill="#6387c3" stroke="#6387c3" points="1853.5,-1322.18 1850,-1312.18 1846.5,-1322.18 1853.5,-1322.18"/>
<text text-anchor="middle" x="1893.5" y="-1333.8" font-family="Times,serif" font-size="14.00" fill="#6387c3">o_sync_q_1s</text>
</g>
<!-- 3 -->
<g id="node4" class="node">
<title>3</title>
<ellipse fill="none" stroke="black" cx="1850" cy="-1207" rx="1195.49" ry="18"/>
<text text-anchor="middle" x="1850" y="-1203.3" font-family="Times,serif" font-size="14.00">{ (not (clean)), (current_state_0 s0_a0), (not (current_state_0 s0_a1)), (not (empty)), (q_3t), (f_ok), (f_sync), (not ((q_1))) (not ((q_1s))), (q_1d), (not (q_2)), (q_2d), (not (q_2s)), (not (q_3)), (not (q_3d)), (q_3s), (q_4), (not (q_4d)), (not (q_4s)), (q_5), (not (q_5s)) }</text>
</g>
<!-- 2&#45;&gt;3 -->
<g id="edge3" class="edge">
<title>2&#45;&gt;3</title>
<path fill="none" stroke="#048c1c" d="M1850,-1275.8C1850,-1264.16 1850,-1248.55 1850,-1235.24"/>
<polygon fill="#048c1c" stroke="#048c1c" points="1853.5,-1235.18 1850,-1225.18 1846.5,-1235.18 1853.5,-1235.18"/>
<text text-anchor="middle" x="1893.5" y="-1246.8" font-family="Times,serif" font-size="14.00" fill="#048c1c">o_sync_q_2s</text>
</g>
<!-- 4 -->
<g id="node5" class="node">
<title>4</title>
<ellipse fill="none" stroke="black" cx="1850" cy="-1120" rx="1195.49" ry="18"/>
<text text-anchor="middle" x="1850" y="-1116.3" font-family="Times,serif" font-size="14.00">{ (not (clean)), (current_state_0 s0_a0), (not (current_state_0 s0_a1)), (not (empty)), (q_4t), (f_ok), (f_sync), (not ((q_1))) (not ((q_1s))), (q_1d), (not (q_2)), (q_2d), (not (q_2s)), (not (q_3)), (q_3d), (not (q_3s)), (q_4), (not (q_4d)), (not (q_4s)), (q_5), (not (q_5s)) }</text>
</g>
<!-- 3&#45;&gt;4 -->
<g id="edge4" class="edge">
<title>3&#45;&gt;4</title>
<path fill="none" stroke="#42b613" d="M1850,-1188.8C1850,-1177.16 1850,-1161.55 1850,-1148.24"/>
<polygon fill="#42b613" stroke="#42b613" points="1853.5,-1148.18 1850,-1138.18 1846.5,-1148.18 1853.5,-1148.18"/>
<text text-anchor="middle" x="1893.5" y="-1159.8" font-family="Times,serif" font-size="14.00" fill="#42b613">o_sync_q_3s</text>
</g>
<!-- 5 -->
<g id="node6" class="node">
<title>5</title>
<ellipse fill="none" stroke="black" cx="1850" cy="-1033" rx="1195.49" ry="18"/>
<text text-anchor="middle" x="1850" y="-1029.3" font-family="Times,serif" font-size="14.00">{ (not (clean)), (current_state_0 s0_a0), (not (current_state_0 s0_a1)), (not (empty)), (q_5t), (f_ok), (f_sync), (not ((q_1))) (not ((q_1s))), (q_1d), (not (q_2)), (q_2d), (not (q_2s)), (not (q_3)), (q_3d), (not (q_3s)), (q_4), (not (q_4d)), (not (q_4s)), (q_5), (not (q_5s)) }</text>
</g>
<!-- 4&#45;&gt;5 -->
<g id="edge5" class="edge">
<title>4&#45;&gt;5</title>
<path fill="none" stroke="#20d4b9" d="M1850,-1101.8C1850,-1090.16 1850,-1074.55 1850,-1061.24"/>
<polygon fill="#20d4b9" stroke="#20d4b9" points="1853.5,-1061.18 1850,-1051.18 1846.5,-1061.18 1853.5,-1061.18"/>
<text text-anchor="middle" x="1893.5" y="-1072.8" font-family="Times,serif" font-size="14.00" fill="#20d4b9">o_sync_q_4s</text>
</g>
<!-- 6 -->
<g id="node7" class="node">
<title>6</title>
<ellipse fill="none" stroke="black" cx="1850" cy="-946" rx="1195.49" ry="18"/>
<text text-anchor="middle" x="1850" y="-942.3" font-family="Times,serif" font-size="14.00">{ (not (clean)), (current_state_0 s0_a0), (not (current_state_0 s0_a1)), (not (empty)), (q_6t), (f_ok), (f_sync), (not ((q_1))) (not ((q_1s))), (q_1d), (not (q_2)), (q_2d), (not (q_2s)), (not (q_3)), (q_3d), (not (q_3s)), (q_4), (not (q_4d)), (not (q_4s)), (q_5), (not (q_5s)) }</text>
</g>
<!-- 5&#45;&gt;6 -->
<g id="edge6" class="edge">
<title>5&#45;&gt;6</title>
<path fill="none" stroke="#a8ccc5" d="M1850,-1014.8C1850,-1003.16 1850,-987.55 1850,-974.24"/>
<polygon fill="#a8ccc5" stroke="#a8ccc5" points="1853.5,-974.18 1850,-964.18 1846.5,-974.18 1853.5,-974.18"/>
<text text-anchor="middle" x="1893.5" y="-985.8" font-family="Times,serif" font-size="14.00" fill="#a8ccc5">o_sync_q_5s</text>
</g>
<!-- 7 -->
<g id="node8" class="node">
<title>7</title>
<ellipse fill="none" stroke="black" cx="1850" cy="-859" rx="1234.48" ry="18"/>
<text text-anchor="middle" x="1850" y="-855.3" font-family="Times,serif" font-size="14.00">{ (not (clean)), (current_state_0 s0_a0), (not (current_state_0 s0_a1)), (not (empty)), (f_world), (f_ok), (not (f_sync)), (not ((q_1))) (not ((q_1s))), (q_1d), (not (q_2)), (q_2d), (not (q_2s)), (not (q_3)), (q_3d), (not (q_3s)), (q_4), (not (q_4d)), (not (q_4s)), (q_5), (not (q_5s)) }</text>
</g>
<!-- 6&#45;&gt;7 -->
<g id="edge7" class="edge">
<title>6&#45;&gt;7</title>
<path fill="none" stroke="#0448c3" d="M1850,-927.8C1850,-916.16 1850,-900.55 1850,-887.24"/>
<polygon fill="#0448c3" stroke="#0448c3" points="1853.5,-887.18 1850,-877.18 1846.5,-887.18 1853.5,-887.18"/>
<text text-anchor="middle" x="1893.5" y="-898.8" font-family="Times,serif" font-size="14.00" fill="#0448c3">o_sync_q_6s</text>
</g>
<!-- 8 -->
<g id="node9" class="node">
<title>8</title>
<ellipse fill="none" stroke="black" cx="1246" cy="-772" rx="1204.19" ry="18"/>
<text text-anchor="middle" x="1246" y="-768.3" font-family="Times,serif" font-size="14.00">{ (clean), (not (current_state_0 s0_a0)), (current_state_0 s0_a1), (not (empty)), (f_copy), (f_ok), (not (f_sync)), (not ((q_1))) (not ((q_1s))), (q_1d), (not (q_2)), (q_2d), (not (q_2s)), (not (q_3)), (q_3d), (not (q_3s)), (q_4), (not (q_4d)), (not (q_4s)), (q_5), (not (q_5s)) }</text>
</g>
<!-- 7&#45;&gt;8 -->
<g id="edge8" class="edge">
<title>7&#45;&gt;8</title>
<path fill="none" stroke="#a21a4d" d="M1729.59,-841.05C1627.4,-826.67 1481.1,-806.09 1376.21,-791.32"/>
<polygon fill="#a21a4d" stroke="#a21a4d" points="1376.59,-787.84 1366.2,-789.92 1375.61,-794.77 1376.59,-787.84"/>
<text text-anchor="middle" x="1624" y="-811.8" font-family="Times,serif" font-size="14.00" fill="#a21a4d">clean_0_a0</text>
</g>
<!-- 9 -->
<g id="node10" class="node">
<title>9</title>
<ellipse fill="none" stroke="black" cx="3673" cy="-772" rx="1204.19" ry="18"/>
<text text-anchor="middle" x="3673" y="-768.3" font-family="Times,serif" font-size="14.00">{ (clean), (current_state_0 s0_a0), (not (current_state_0 s0_a1)), (not (empty)), (f_copy), (f_ok), (not (f_sync)), (not ((q_1))) (not ((q_1s))), (q_1d), (not (q_2)), (q_2d), (not (q_2s)), (not (q_3)), (q_3d), (not (q_3s)), (q_4), (not (q_4d)), (not (q_4s)), (q_5), (not (q_5s)) }</text>
</g>
<!-- 7&#45;&gt;9 -->
<g id="edge9" class="edge">
<title>7&#45;&gt;9</title>
<path fill="none" stroke="#a21a4d" d="M2199.07,-841.72C2519.32,-826.79 2991.63,-804.77 3314.75,-789.7"/>
<polygon fill="#a21a4d" stroke="#a21a4d" points="3314.92,-793.2 3324.74,-789.24 3314.59,-786.21 3314.92,-793.2"/>
<text text-anchor="middle" x="2909" y="-811.8" font-family="Times,serif" font-size="14.00" fill="#a21a4d">clean_0_a0</text>
</g>
<!-- 10 -->
<g id="node11" class="node">
<title>10</title>
<ellipse fill="none" stroke="black" cx="1246" cy="-685" rx="1170.59" ry="18"/>
<text text-anchor="middle" x="1246" y="-681.3" font-family="Times,serif" font-size="14.00">{ (clean), (not (current_state_0 s0_a0)), (current_state_0 s0_a1), (not (empty)), (q_1t), (f_ok), (f_sync), (not ((q_1))) (not ((q_1s))), (q_1d), (not (q_2)), (q_2d), (not (q_2s)), (not (q_3)), (q_3d), (not (q_3s)), (not (q_4)), (not (q_4d)), (q_4s), (not (q_5)), (q_5s) }</text>
</g>
<!-- 8&#45;&gt;10 -->
<g id="edge10" class="edge">
<title>8&#45;&gt;10</title>
<path fill="none" stroke="#b6d9a2" d="M1246,-753.8C1246,-742.16 1246,-726.55 1246,-713.24"/>
<polygon fill="#b6d9a2" stroke="#b6d9a2" points="1249.5,-713.18 1246,-703.18 1242.5,-713.18 1249.5,-713.18"/>
<text text-anchor="middle" x="1270.5" y="-724.8" font-family="Times,serif" font-size="14.00" fill="#b6d9a2">o_copy</text>
</g>
<!-- 11 -->
<g id="node12" class="node">
<title>11</title>
<ellipse fill="none" stroke="black" cx="3673" cy="-685" rx="1170.59" ry="18"/>
<text text-anchor="middle" x="3673" y="-681.3" font-family="Times,serif" font-size="14.00">{ (clean), (current_state_0 s0_a0), (not (current_state_0 s0_a1)), (not (empty)), (q_1t), (f_ok), (f_sync), (not ((q_1))) (not ((q_1s))), (q_1d), (not (q_2)), (q_2d), (not (q_2s)), (not (q_3)), (q_3d), (not (q_3s)), (not (q_4)), (not (q_4d)), (q_4s), (not (q_5)), (q_5s) }</text>
</g>
<!-- 9&#45;&gt;11 -->
<g id="edge11" class="edge">
<title>9&#45;&gt;11</title>
<path fill="none" stroke="#3d12b5" d="M3673,-753.8C3673,-742.16 3673,-726.55 3673,-713.24"/>
<polygon fill="#3d12b5" stroke="#3d12b5" points="3676.5,-713.18 3673,-703.18 3669.5,-713.18 3676.5,-713.18"/>
<text text-anchor="middle" x="3697.5" y="-724.8" font-family="Times,serif" font-size="14.00" fill="#3d12b5">o_copy</text>
</g>
<!-- 12 -->
<g id="node13" class="node">
<title>12</title>
<ellipse fill="none" stroke="black" cx="1246" cy="-598" rx="1170.59" ry="18"/>
<text text-anchor="middle" x="1246" y="-594.3" font-family="Times,serif" font-size="14.00">{ (clean), (not (current_state_0 s0_a0)), (current_state_0 s0_a1), (not (empty)), (q_2t), (f_ok), (f_sync), (not ((q_1))) (not ((q_1s))), (q_1d), (not (q_2)), (q_2d), (not (q_2s)), (not (q_3)), (q_3d), (not (q_3s)), (not (q_4)), (not (q_4d)), (q_4s), (not (q_5)), (q_5s) }</text>
</g>
<!-- 10&#45;&gt;12 -->
<g id="edge12" class="edge">
<title>10&#45;&gt;12</title>
<path fill="none" stroke="#99be22" d="M1246,-666.8C1246,-655.16 1246,-639.55 1246,-626.24"/>
<polygon fill="#99be22" stroke="#99be22" points="1249.5,-626.18 1246,-616.18 1242.5,-626.18 1249.5,-626.18"/>
<text text-anchor="middle" x="1289.5" y="-637.8" font-family="Times,serif" font-size="14.00" fill="#99be22">o_sync_q_1s</text>
</g>
<!-- 13 -->
<g id="node14" class="node">
<title>13</title>
<ellipse fill="none" stroke="black" cx="3673" cy="-598" rx="1170.59" ry="18"/>
<text text-anchor="middle" x="3673" y="-594.3" font-family="Times,serif" font-size="14.00">{ (clean), (current_state_0 s0_a0), (not (current_state_0 s0_a1)), (not (empty)), (q_2t), (f_ok), (f_sync), (not ((q_1))) (not ((q_1s))), (q_1d), (not (q_2)), (q_2d), (not (q_2s)), (not (q_3)), (q_3d), (not (q_3s)), (not (q_4)), (not (q_4d)), (q_4s), (not (q_5)), (q_5s) }</text>
</g>
<!-- 11&#45;&gt;13 -->
<g id="edge13" class="edge">
<title>11&#45;&gt;13</title>
<path fill="none" stroke="#d7f4b7" d="M3673,-666.8C3673,-655.16 3673,-639.55 3673,-626.24"/>
<polygon fill="#d7f4b7" stroke="#d7f4b7" points="3676.5,-626.18 3673,-616.18 3669.5,-626.18 3676.5,-626.18"/>
<text text-anchor="middle" x="3716.5" y="-637.8" font-family="Times,serif" font-size="14.00" fill="#d7f4b7">o_sync_q_1s</text>
</g>
<!-- 14 -->
<g id="node15" class="node">
<title>14</title>
<ellipse fill="none" stroke="black" cx="1246" cy="-511" rx="1170.59" ry="18"/>
<text text-anchor="middle" x="1246" y="-507.3" font-family="Times,serif" font-size="14.00">{ (clean), (not (current_state_0 s0_a0)), (current_state_0 s0_a1), (not (empty)), (q_3t), (f_ok), (f_sync), (not ((q_1))) (not ((q_1s))), (q_1d), (not (q_2)), (q_2d), (not (q_2s)), (not (q_3)), (q_3d), (not (q_3s)), (not (q_4)), (not (q_4d)), (q_4s), (not (q_5)), (q_5s) }</text>
</g>
<!-- 12&#45;&gt;14 -->
<g id="edge14" class="edge">
<title>12&#45;&gt;14</title>
<path fill="none" stroke="#c66736" d="M1246,-579.8C1246,-568.16 1246,-552.55 1246,-539.24"/>
<polygon fill="#c66736" stroke="#c66736" points="1249.5,-539.18 1246,-529.18 1242.5,-539.18 1249.5,-539.18"/>
<text text-anchor="middle" x="1289.5" y="-550.8" font-family="Times,serif" font-size="14.00" fill="#c66736">o_sync_q_2s</text>
</g>
<!-- 15 -->
<g id="node16" class="node">
<title>15</title>
<ellipse fill="none" stroke="black" cx="3673" cy="-511" rx="1170.59" ry="18"/>
<text text-anchor="middle" x="3673" y="-507.3" font-family="Times,serif" font-size="14.00">{ (clean), (current_state_0 s0_a0), (not (current_state_0 s0_a1)), (not (empty)), (q_3t), (f_ok), (f_sync), (not ((q_1))) (not ((q_1s))), (q_1d), (not (q_2)), (q_2d), (not (q_2s)), (not (q_3)), (q_3d), (not (q_3s)), (not (q_4)), (not (q_4d)), (q_4s), (not (q_5)), (q_5s) }</text>
</g>
<!-- 13&#45;&gt;15 -->
<g id="edge15" class="edge">
<title>13&#45;&gt;15</title>
<path fill="none" stroke="#501751" d="M3673,-579.8C3673,-568.16 3673,-552.55 3673,-539.24"/>
<polygon fill="#501751" stroke="#501751" points="3676.5,-539.18 3673,-529.18 3669.5,-539.18 3676.5,-539.18"/>
<text text-anchor="middle" x="3716.5" y="-550.8" font-family="Times,serif" font-size="14.00" fill="#501751">o_sync_q_2s</text>
</g>
<!-- 16 -->
<g id="node17" class="node">
<title>16</title>
<ellipse fill="none" stroke="black" cx="1246" cy="-424" rx="1170.59" ry="18"/>
<text text-anchor="middle" x="1246" y="-420.3" font-family="Times,serif" font-size="14.00">{ (clean), (not (current_state_0 s0_a0)), (current_state_0 s0_a1), (not (empty)), (q_4t), (f_ok), (f_sync), (not ((q_1))) (not ((q_1s))), (q_1d), (not (q_2)), (q_2d), (not (q_2s)), (not (q_3)), (q_3d), (not (q_3s)), (not (q_4)), (not (q_4d)), (q_4s), (not (q_5)), (q_5s) }</text>
</g>
<!-- 14&#45;&gt;16 -->
<g id="edge16" class="edge">
<title>14&#45;&gt;16</title>
<path fill="none" stroke="#ab4696" d="M1246,-492.8C1246,-481.16 1246,-465.55 1246,-452.24"/>
<polygon fill="#ab4696" stroke="#ab4696" points="1249.5,-452.18 1246,-442.18 1242.5,-452.18 1249.5,-452.18"/>
<text text-anchor="middle" x="1289.5" y="-463.8" font-family="Times,serif" font-size="14.00" fill="#ab4696">o_sync_q_3s</text>
</g>
<!-- 17 -->
<g id="node18" class="node">
<title>17</title>
<ellipse fill="none" stroke="black" cx="3673" cy="-424" rx="1170.59" ry="18"/>
<text text-anchor="middle" x="3673" y="-420.3" font-family="Times,serif" font-size="14.00">{ (clean), (current_state_0 s0_a0), (not (current_state_0 s0_a1)), (not (empty)), (q_4t), (f_ok), (f_sync), (not ((q_1))) (not ((q_1s))), (q_1d), (not (q_2)), (q_2d), (not (q_2s)), (not (q_3)), (q_3d), (not (q_3s)), (not (q_4)), (not (q_4d)), (q_4s), (not (q_5)), (q_5s) }</text>
</g>
<!-- 15&#45;&gt;17 -->
<g id="edge17" class="edge">
<title>15&#45;&gt;17</title>
<path fill="none" stroke="#aad6e6" d="M3673,-492.8C3673,-481.16 3673,-465.55 3673,-452.24"/>
<polygon fill="#aad6e6" stroke="#aad6e6" points="3676.5,-452.18 3673,-442.18 3669.5,-452.18 3676.5,-452.18"/>
<text text-anchor="middle" x="3716.5" y="-463.8" font-family="Times,serif" font-size="14.00" fill="#aad6e6">o_sync_q_3s</text>
</g>
<!-- 18 -->
<g id="node19" class="node">
<title>18</title>
<ellipse fill="none" stroke="black" cx="1246" cy="-316" rx="1170.59" ry="18"/>
<text text-anchor="middle" x="1246" y="-312.3" font-family="Times,serif" font-size="14.00">{ (clean), (not (current_state_0 s0_a0)), (current_state_0 s0_a1), (not (empty)), (q_5t), (f_ok), (f_sync), (not ((q_1))) (not ((q_1s))), (q_1d), (not (q_2)), (q_2d), (not (q_2s)), (not (q_3)), (q_3d), (not (q_3s)), (not (q_4)), (q_4d), (not (q_4s)), (not (q_5)), (q_5s) }</text>
</g>
<!-- 16&#45;&gt;18 -->
<g id="edge18" class="edge">
<title>16&#45;&gt;18</title>
<path fill="none" stroke="#4a6849" d="M1246,-405.97C1246,-389.38 1246,-363.88 1246,-344.43"/>
<polygon fill="#4a6849" stroke="#4a6849" points="1249.5,-344.34 1246,-334.34 1242.5,-344.34 1249.5,-344.34"/>
<text text-anchor="middle" x="1289.5" y="-376.8" font-family="Times,serif" font-size="14.00" fill="#4a6849">o_sync_q_4s</text>
</g>
<!-- 19 -->
<g id="node20" class="node">
<title>19</title>
<ellipse fill="none" stroke="black" cx="3673" cy="-316" rx="1170.59" ry="18"/>
<text text-anchor="middle" x="3673" y="-312.3" font-family="Times,serif" font-size="14.00">{ (clean), (current_state_0 s0_a0), (not (current_state_0 s0_a1)), (not (empty)), (q_5t), (f_ok), (f_sync), (not ((q_1))) (not ((q_1s))), (q_1d), (not (q_2)), (q_2d), (not (q_2s)), (not (q_3)), (q_3d), (not (q_3s)), (not (q_4)), (q_4d), (not (q_4s)), (not (q_5)), (q_5s) }</text>
</g>
<!-- 17&#45;&gt;19 -->
<g id="edge19" class="edge">
<title>17&#45;&gt;19</title>
<path fill="none" stroke="#1e3dd7" d="M3673,-405.97C3673,-389.38 3673,-363.88 3673,-344.43"/>
<polygon fill="#1e3dd7" stroke="#1e3dd7" points="3676.5,-344.34 3673,-334.34 3669.5,-344.34 3676.5,-344.34"/>
<text text-anchor="middle" x="3716.5" y="-376.8" font-family="Times,serif" font-size="14.00" fill="#1e3dd7">o_sync_q_4s</text>
</g>
<!-- 20 -->
<g id="node21" class="node">
<title>20</title>
<ellipse fill="none" stroke="black" cx="1246" cy="-229" rx="1195.49" ry="18"/>
<text text-anchor="middle" x="1246" y="-225.3" font-family="Times,serif" font-size="14.00">{ (clean), (not (current_state_0 s0_a0)), (current_state_0 s0_a1), (not (empty)), (q_6t), (f_ok), (f_sync), (not ((q_1))) (not ((q_1s))), (q_1d), (not (q_2)), (q_2d), (not (q_2s)), (not (q_3)), (q_3d), (not (q_3s)), (not (q_4)), (q_4d), (not (q_4s)), (not (q_5)), (not (q_5s)) }</text>
</g>
<!-- 18&#45;&gt;20 -->
<g id="edge20" class="edge">
<title>18&#45;&gt;20</title>
<path fill="none" stroke="#715187" d="M1246,-297.8C1246,-286.16 1246,-270.55 1246,-257.24"/>
<polygon fill="#715187" stroke="#715187" points="1249.5,-257.18 1246,-247.18 1242.5,-257.18 1249.5,-257.18"/>
<text text-anchor="middle" x="1289.5" y="-268.8" font-family="Times,serif" font-size="14.00" fill="#715187">o_sync_q_5s</text>
</g>
<!-- 21 -->
<g id="node22" class="node">
<title>21</title>
<ellipse fill="none" stroke="black" cx="1246" cy="-142" rx="1234.48" ry="18"/>
<text text-anchor="middle" x="1246" y="-138.3" font-family="Times,serif" font-size="14.00">{ (clean), (not (current_state_0 s0_a0)), (current_state_0 s0_a1), (not (empty)), (f_world), (f_ok), (not (f_sync)), (not ((q_1))) (not ((q_1s))), (q_1d), (not (q_2)), (q_2d), (not (q_2s)), (not (q_3)), (q_3d), (not (q_3s)), (not (q_4)), (q_4d), (not (q_4s)), (not (q_5)), (not (q_5s)) }</text>
</g>
<!-- 20&#45;&gt;21 -->
<g id="edge21" class="edge">
<title>20&#45;&gt;21</title>
<path fill="none" stroke="#579e9e" d="M1246,-210.8C1246,-199.16 1246,-183.55 1246,-170.24"/>
<polygon fill="#579e9e" stroke="#579e9e" points="1249.5,-170.18 1246,-160.18 1242.5,-170.18 1249.5,-170.18"/>
<text text-anchor="middle" x="1289.5" y="-181.8" font-family="Times,serif" font-size="14.00" fill="#579e9e">o_sync_q_6s</text>
</g>
<!-- 22 -->
<g id="node23" class="node">
<title>22</title>
<ellipse fill="none" stroke="black" cx="1246" cy="-34" rx="1229.88" ry="18"/>
<text text-anchor="middle" x="1246" y="-30.3" font-family="Times,serif" font-size="14.00">{ (not (clean)), (current_state_0 s0_a0), (not (current_state_0 s0_a1)), (empty), (f_copy), (f_ok), (not (f_sync)), (not ((q_1))) (not ((q_1s))), (q_1d), (not (q_2)), (q_2d), (not (q_2s)), (not (q_3)), (q_3d), (not (q_3s)), (not (q_4)), (q_4d), (not (q_4s)), (not (q_5)), (not (q_5s)) }</text>
</g>
<!-- 21&#45;&gt;22 -->
<g id="edge22" class="edge">
<title>21&#45;&gt;22</title>
<path fill="none" stroke="#9cab90" d="M1246,-123.97C1246,-107.38 1246,-81.88 1246,-62.43"/>
<polygon fill="#9cab90" stroke="#9cab90" points="1249.5,-62.34 1246,-52.34 1242.5,-62.34 1249.5,-62.34"/>
<text text-anchor="middle" x="1288.5" y="-94.8" font-family="Times,serif" font-size="14.00" fill="#9cab90">empty_0_a1</text>
</g>
</g>
</svg>
