<?xml version="1.0" encoding="UTF-8" standalone="no"?>
<!DOCTYPE svg PUBLIC "-//W3C//DTD SVG 1.1//EN"
 "http://www.w3.org/Graphics/SVG/1.1/DTD/svg11.dtd">
<!-- Generated by graphviz version 2.43.0 (0)
 -->
<!-- Title: G Pages: 1 -->
<svg width="1271pt" height="278pt"
 viewBox="0.00 0.00 1271.42 278.00" xmlns="http://www.w3.org/2000/svg" xmlns:xlink="http://www.w3.org/1999/xlink">
<g id="graph0" class="graph" transform="scale(1 1) rotate(0) translate(4 274)">
<title>G</title>
<polygon fill="white" stroke="transparent" points="-4,4 -4,-274 1267.42,-274 1267.42,4 -4,4"/>
<g id="clust1" class="cluster">
<title>cluster_init</title>
<polygon fill="lightblue" stroke="lightblue" points="121,-187 121,-262 621,-262 621,-187 121,-187"/>
<text text-anchor="middle" x="371" y="-246.8" font-family="Times,serif" font-size="14.00">INIT</text>
</g>
<g id="clust2" class="cluster">
<title>cluster_goal_9</title>
<polygon fill="palegreen" stroke="palegreen" points="8,-79 8,-154 638,-154 638,-79 8,-79"/>
<text text-anchor="middle" x="323" y="-138.8" font-family="Times,serif" font-size="14.00">GOAL</text>
</g>
<!-- 0 -->
<g id="node1" class="node">
<title>0</title>
<ellipse fill="none" stroke="black" cx="371" cy="-213" rx="241.56" ry="18"/>
<text text-anchor="middle" x="371" y="-209.3" font-family="Times,serif" font-size="14.00">{ (current_state_0 s0_a0), (f_copy), (f_ok), (q_1), }</text>
</g>
<!-- 9 -->
<g id="node2" class="node">
<title>9</title>
<ellipse fill="none" stroke="black" cx="323" cy="-105" rx="307.35" ry="18"/>
<text text-anchor="middle" x="323" y="-101.3" font-family="Times,serif" font-size="14.00">{ (clean), (current_state_0 s0_a0), (f_copy), (f_ok), (q_4), (q_5), }</text>
</g>
<!-- 0&#45;&gt;9 -->
<g id="edge1" class="edge">
<title>0&#45;&gt;9</title>
<path fill="none" stroke="#6d254a" d="M363.29,-194.97C355.67,-178.15 343.91,-152.17 335.06,-132.62"/>
<polygon fill="#6d254a" stroke="#6d254a" points="338.17,-131.01 330.85,-123.34 331.79,-133.89 338.17,-131.01"/>
<text text-anchor="middle" x="393" y="-165.8" font-family="Times,serif" font-size="14.00" fill="#6d254a">clean_0_a0</text>
</g>
<!-- 8 -->
<g id="node3" class="node">
<title>8</title>
<ellipse fill="none" stroke="black" cx="956" cy="-105" rx="307.35" ry="18"/>
<text text-anchor="middle" x="956" y="-101.3" font-family="Times,serif" font-size="14.00">{ (clean), (current_state_0 s0_a1), (f_copy), (f_ok), (q_4), (q_5), }</text>
</g>
<!-- 0&#45;&gt;8 -->
<g id="edge2" class="edge">
<title>0&#45;&gt;8</title>
<path fill="none" stroke="#6d254a" d="M458.26,-196.19C564.78,-176.89 744.48,-144.33 856.34,-124.06"/>
<polygon fill="#6d254a" stroke="#6d254a" points="857.06,-127.48 866.27,-122.26 855.81,-120.6 857.06,-127.48"/>
<text text-anchor="middle" x="684" y="-165.8" font-family="Times,serif" font-size="14.00" fill="#6d254a">clean_0_a0</text>
</g>
<!-- 26 -->
<g id="node4" class="node">
<title>26</title>
<ellipse fill="none" stroke="black" cx="956" cy="-18" rx="295.15" ry="18"/>
<text text-anchor="middle" x="956" y="-14.3" font-family="Times,serif" font-size="14.00">{ (current_state_0 s0_a0), (empty), (f_copy), (f_goal), (f_ok), }</text>
</g>
<!-- 8&#45;&gt;26 -->
<g id="edge3" class="edge">
<title>8&#45;&gt;26</title>
<path fill="none" stroke="#f062db" d="M956,-86.8C956,-75.16 956,-59.55 956,-46.24"/>
<polygon fill="#f062db" stroke="#f062db" points="959.5,-46.18 956,-36.18 952.5,-46.18 959.5,-46.18"/>
<text text-anchor="middle" x="998.5" y="-57.8" font-family="Times,serif" font-size="14.00" fill="#f062db">empty_0_a1</text>
</g>
</g>
</svg>
