<?xml version="1.0" encoding="UTF-8" standalone="no"?>
<!DOCTYPE svg PUBLIC "-//W3C//DTD SVG 1.1//EN"
 "http://www.w3.org/Graphics/SVG/1.1/DTD/svg11.dtd">
<!-- Generated by graphviz version 2.43.0 (0)
 -->
<!-- Title: G Pages: 1 -->
<svg width="1687pt" height="278pt"
 viewBox="0.00 0.00 1687.41 278.00" xmlns="http://www.w3.org/2000/svg" xmlns:xlink="http://www.w3.org/1999/xlink">
<g id="graph0" class="graph" transform="scale(1 1) rotate(0) translate(4 274)">
<title>G</title>
<polygon fill="white" stroke="transparent" points="-4,4 -4,-274 1683.41,-274 1683.41,4 -4,4"/>
<g id="clust1" class="cluster">
<title>cluster_init</title>
<polygon fill="lightblue" stroke="lightblue" points="568.41,-187 568.41,-262 1068.41,-262 1068.41,-187 568.41,-187"/>
<text text-anchor="middle" x="818.41" y="-246.8" font-family="Times,serif" font-size="14.00">INIT</text>
</g>
<g id="clust2" class="cluster">
<title>cluster_goal_9</title>
<polygon fill="palegreen" stroke="palegreen" points="833.41,-79 833.41,-154 1671.41,-154 1671.41,-79 833.41,-79"/>
<text text-anchor="middle" x="1252.41" y="-138.8" font-family="Times,serif" font-size="14.00">GOAL</text>
</g>
<!-- 0 -->
<g id="node1" class="node">
<title>0</title>
<ellipse fill="none" stroke="black" cx="818.41" cy="-213" rx="241.56" ry="18"/>
<text text-anchor="middle" x="818.41" y="-209.3" font-family="Times,serif" font-size="14.00">{ (current_state_0 s0_a0), (f_copy), (f_ok), (q_1), }</text>
</g>
<!-- 8 -->
<g id="node2" class="node">
<title>8</title>
<ellipse fill="none" stroke="black" cx="411.41" cy="-105" rx="411.33" ry="18"/>
<text text-anchor="middle" x="411.41" y="-101.3" font-family="Times,serif" font-size="14.00">{ (clean), (current_state_0 s0_a1), (f_copy), (f_ok), (q_1d), (q_2d), (q_3d), (q_4), (q_5), }</text>
</g>
<!-- 0&#45;&gt;8 -->
<g id="edge1" class="edge">
<title>0&#45;&gt;8</title>
<path fill="none" stroke="#a21a4d" d="M755.27,-195.55C682.61,-176.63 563.43,-145.59 486.2,-125.48"/>
<polygon fill="#a21a4d" stroke="#a21a4d" points="486.61,-121.97 476.05,-122.84 484.85,-128.74 486.61,-121.97"/>
<text text-anchor="middle" x="713.41" y="-165.8" font-family="Times,serif" font-size="14.00" fill="#a21a4d">clean_0_a0</text>
</g>
<!-- 9 -->
<g id="node3" class="node">
<title>9</title>
<ellipse fill="none" stroke="black" cx="1252.41" cy="-105" rx="411.33" ry="18"/>
<text text-anchor="middle" x="1252.41" y="-101.3" font-family="Times,serif" font-size="14.00">{ (clean), (current_state_0 s0_a0), (f_copy), (f_ok), (q_1d), (q_2d), (q_3d), (q_4), (q_5), }</text>
</g>
<!-- 0&#45;&gt;9 -->
<g id="edge2" class="edge">
<title>0&#45;&gt;9</title>
<path fill="none" stroke="#a21a4d" d="M885.27,-195.67C963.07,-176.67 1091.38,-145.33 1173.86,-125.19"/>
<polygon fill="#a21a4d" stroke="#a21a4d" points="1174.8,-128.56 1183.68,-122.79 1173.14,-121.76 1174.8,-128.56"/>
<text text-anchor="middle" x="1060.41" y="-165.8" font-family="Times,serif" font-size="14.00" fill="#a21a4d">clean_0_a0</text>
</g>
<!-- 22 -->
<g id="node4" class="node">
<title>22</title>
<ellipse fill="none" stroke="black" cx="411.41" cy="-18" rx="393.43" ry="18"/>
<text text-anchor="middle" x="411.41" y="-14.3" font-family="Times,serif" font-size="14.00">{ (current_state_0 s0_a0), (empty), (f_copy), (f_ok), (q_1d), (q_2d), (q_3d), (q_4d), }</text>
</g>
<!-- 8&#45;&gt;22 -->
<g id="edge3" class="edge">
<title>8&#45;&gt;22</title>
<path fill="none" stroke="#9cab90" d="M411.41,-86.8C411.41,-75.16 411.41,-59.55 411.41,-46.24"/>
<polygon fill="#9cab90" stroke="#9cab90" points="414.91,-46.18 411.41,-36.18 407.91,-46.18 414.91,-46.18"/>
<text text-anchor="middle" x="453.91" y="-57.8" font-family="Times,serif" font-size="14.00" fill="#9cab90">empty_0_a1</text>
</g>
</g>
</svg>
