<?xml version="1.0" encoding="UTF-8" standalone="no"?>
<!DOCTYPE svg PUBLIC "-//W3C//DTD SVG 1.1//EN"
 "http://www.w3.org/Graphics/SVG/1.1/DTD/svg11.dtd">
<!-- Generated by graphviz version 2.43.0 (0)
 -->
<!-- Title: G Pages: 1 -->
<svg width="1146pt" height="278pt"
 viewBox="0.00 0.00 1146.23 278.00" xmlns="http://www.w3.org/2000/svg" xmlns:xlink="http://www.w3.org/1999/xlink">
<g id="graph0" class="graph" transform="scale(1 1) rotate(0) translate(4 274)">
<title>G</title>
<polygon fill="white" stroke="transparent" points="-4,4 -4,-274 1142.23,-274 1142.23,4 -4,4"/>
<g id="clust1" class="cluster">
<title>cluster_init</title>
<polygon fill="lightblue" stroke="lightblue" points="360.23,-187 360.23,-262 798.23,-262 798.23,-187 360.23,-187"/>
<text text-anchor="middle" x="579.23" y="-246.8" font-family="Times,serif" font-size="14.00">INIT</text>
</g>
<g id="clust2" class="cluster">
<title>cluster_goal_6</title>
<polygon fill="palegreen" stroke="palegreen" points="562.23,-79 562.23,-154 1130.23,-154 1130.23,-79 562.23,-79"/>
<text text-anchor="middle" x="846.23" y="-138.8" font-family="Times,serif" font-size="14.00">GOAL</text>
</g>
<!-- 0 -->
<g id="node1" class="node">
<title>0</title>
<ellipse fill="none" stroke="black" cx="579.23" cy="-213" rx="210.66" ry="18"/>
<text text-anchor="middle" x="579.23" y="-209.3" font-family="Times,serif" font-size="14.00">{ (current_state_0 s0_a0), (f_copy), (q_4), }</text>
</g>
<!-- 7 -->
<g id="node2" class="node">
<title>7</title>
<ellipse fill="none" stroke="black" cx="276.23" cy="-105" rx="276.45" ry="18"/>
<text text-anchor="middle" x="276.23" y="-101.3" font-family="Times,serif" font-size="14.00">{ (clean), (current_state_0 s0_a1), (f_copy), (q_1), (q_5), }</text>
</g>
<!-- 0&#45;&gt;7 -->
<g id="edge1" class="edge">
<title>0&#45;&gt;7</title>
<path fill="none" stroke="#575c70" d="M531.88,-195.44C478.39,-176.72 391.31,-146.26 333.89,-126.17"/>
<polygon fill="#575c70" stroke="#575c70" points="334.83,-122.79 324.24,-122.8 332.52,-129.4 334.83,-122.79"/>
<text text-anchor="middle" x="511.23" y="-165.8" font-family="Times,serif" font-size="14.00" fill="#575c70">clean_0_a0</text>
</g>
<!-- 6 -->
<g id="node3" class="node">
<title>6</title>
<ellipse fill="none" stroke="black" cx="846.23" cy="-105" rx="276.45" ry="18"/>
<text text-anchor="middle" x="846.23" y="-101.3" font-family="Times,serif" font-size="14.00">{ (clean), (current_state_0 s0_a0), (f_copy), (q_1), (q_5), }</text>
</g>
<!-- 0&#45;&gt;6 -->
<g id="edge2" class="edge">
<title>0&#45;&gt;6</title>
<path fill="none" stroke="#575c70" d="M621.24,-195.32C668.01,-176.75 743.64,-146.73 794.14,-126.68"/>
<polygon fill="#575c70" stroke="#575c70" points="795.57,-129.88 803.58,-122.93 792.99,-123.37 795.57,-129.88"/>
<text text-anchor="middle" x="743.23" y="-165.8" font-family="Times,serif" font-size="14.00" fill="#575c70">clean_0_a0</text>
</g>
<!-- 18 -->
<g id="node4" class="node">
<title>18</title>
<ellipse fill="none" stroke="black" cx="276.23" cy="-18" rx="263.75" ry="18"/>
<text text-anchor="middle" x="276.23" y="-14.3" font-family="Times,serif" font-size="14.00">{ (current_state_0 s0_a0), (empty), (f_copy), (f_goal), }</text>
</g>
<!-- 7&#45;&gt;18 -->
<g id="edge3" class="edge">
<title>7&#45;&gt;18</title>
<path fill="none" stroke="#58aaf6" d="M276.23,-86.8C276.23,-75.16 276.23,-59.55 276.23,-46.24"/>
<polygon fill="#58aaf6" stroke="#58aaf6" points="279.73,-46.18 276.23,-36.18 272.73,-46.18 279.73,-46.18"/>
<text text-anchor="middle" x="318.73" y="-57.8" font-family="Times,serif" font-size="14.00" fill="#58aaf6">empty_0_a1</text>
</g>
</g>
</svg>
