<?xml version="1.0" encoding="UTF-8" standalone="no"?>
<!DOCTYPE svg PUBLIC "-//W3C//DTD SVG 1.1//EN"
 "http://www.w3.org/Graphics/SVG/1.1/DTD/svg11.dtd">
<!-- Generated by graphviz version 2.43.0 (0)
 -->
<!-- Title: G Pages: 1 -->
<svg width="1562pt" height="278pt"
 viewBox="0.00 0.00 1562.22 278.00" xmlns="http://www.w3.org/2000/svg" xmlns:xlink="http://www.w3.org/1999/xlink">
<g id="graph0" class="graph" transform="scale(1 1) rotate(0) translate(4 274)">
<title>G</title>
<polygon fill="white" stroke="transparent" points="-4,4 -4,-274 1558.22,-274 1558.22,4 -4,4"/>
<g id="clust1" class="cluster">
<title>cluster_init</title>
<polygon fill="lightblue" stroke="lightblue" points="303,-187 303,-262 741,-262 741,-187 303,-187"/>
<text text-anchor="middle" x="522" y="-246.8" font-family="Times,serif" font-size="14.00">INIT</text>
</g>
<g id="clust2" class="cluster">
<title>cluster_goal_6</title>
<polygon fill="palegreen" stroke="palegreen" points="8,-79 8,-154 784,-154 784,-79 8,-79"/>
<text text-anchor="middle" x="396" y="-138.8" font-family="Times,serif" font-size="14.00">GOAL</text>
</g>
<!-- 0 -->
<g id="node1" class="node">
<title>0</title>
<ellipse fill="none" stroke="black" cx="522" cy="-213" rx="210.66" ry="18"/>
<text text-anchor="middle" x="522" y="-209.3" font-family="Times,serif" font-size="14.00">{ (current_state_0 s0_a0), (f_copy), (q_4), }</text>
</g>
<!-- 6 -->
<g id="node2" class="node">
<title>6</title>
<ellipse fill="none" stroke="black" cx="396" cy="-105" rx="380.43" ry="18"/>
<text text-anchor="middle" x="396" y="-101.3" font-family="Times,serif" font-size="14.00">{ (clean), (current_state_0 s0_a0), (f_copy), (q_1), (q_4d), (q_2d), (q_3d), (q_5), }</text>
</g>
<!-- 0&#45;&gt;6 -->
<g id="edge1" class="edge">
<title>0&#45;&gt;6</title>
<path fill="none" stroke="#a58678" d="M501.76,-194.97C480.72,-177.27 447.65,-149.45 424.09,-129.63"/>
<polygon fill="#a58678" stroke="#a58678" points="426.1,-126.75 416.19,-122.99 421.59,-132.1 426.1,-126.75"/>
<text text-anchor="middle" x="516" y="-165.8" font-family="Times,serif" font-size="14.00" fill="#a58678">clean_0_a0</text>
</g>
<!-- 7 -->
<g id="node3" class="node">
<title>7</title>
<ellipse fill="none" stroke="black" cx="1174" cy="-105" rx="380.43" ry="18"/>
<text text-anchor="middle" x="1174" y="-101.3" font-family="Times,serif" font-size="14.00">{ (clean), (current_state_0 s0_a1), (f_copy), (q_1), (q_4d), (q_2d), (q_3d), (q_5), }</text>
</g>
<!-- 0&#45;&gt;7 -->
<g id="edge2" class="edge">
<title>0&#45;&gt;7</title>
<path fill="none" stroke="#a58678" d="M615.42,-196.81C733.69,-177.58 937.2,-144.5 1063.2,-124.01"/>
<polygon fill="#a58678" stroke="#a58678" points="1063.95,-127.44 1073.26,-122.38 1062.83,-120.53 1063.95,-127.44"/>
<text text-anchor="middle" x="867" y="-165.8" font-family="Times,serif" font-size="14.00" fill="#a58678">clean_0_a0</text>
</g>
<!-- 14 -->
<g id="node4" class="node">
<title>14</title>
<ellipse fill="none" stroke="black" cx="1174" cy="-18" rx="362.04" ry="18"/>
<text text-anchor="middle" x="1174" y="-14.3" font-family="Times,serif" font-size="14.00">{ (current_state_0 s0_a0), (empty), (f_copy), (q_1d), (q_4d), (q_2d), (q_3d), }</text>
</g>
<!-- 7&#45;&gt;14 -->
<g id="edge3" class="edge">
<title>7&#45;&gt;14</title>
<path fill="none" stroke="#643071" d="M1174,-86.8C1174,-75.16 1174,-59.55 1174,-46.24"/>
<polygon fill="#643071" stroke="#643071" points="1177.5,-46.18 1174,-36.18 1170.5,-46.18 1177.5,-46.18"/>
<text text-anchor="middle" x="1216.5" y="-57.8" font-family="Times,serif" font-size="14.00" fill="#643071">empty_0_a1</text>
</g>
</g>
</svg>
